%FSLAX46Y46*%
G04 Gerber Fmt 4.6, Leading zero omitted, Abs format (unit mm)*
G04 Created by KiCad (PCBNEW (2014-08-05 BZR 5054)-product) date Thu 20 Aug 2015 06:52:16 PM PDT*
%MOMM*%
G01*
G04 APERTURE LIST*
%ADD10C,0.100000*%
%ADD11C,3.810000*%
%ADD12C,1.524000*%
%ADD13R,1.524000X1.524000*%
%ADD14C,0.889000*%
%ADD15C,0.304800*%
%ADD16C,0.254000*%
G04 APERTURE END LIST*
D10*
D11*
X174625000Y-73660000D03*
X127635000Y-73660000D03*
D12*
X134620000Y-76200000D03*
X137414000Y-76200000D03*
X140081000Y-76200000D03*
X142875000Y-76200000D03*
X145669000Y-76200000D03*
X148463000Y-76200000D03*
X151130000Y-76200000D03*
X153924000Y-76200000D03*
X156718000Y-76200000D03*
X159512000Y-76200000D03*
X162179000Y-76200000D03*
X164973000Y-76200000D03*
D13*
X167767000Y-76200000D03*
D12*
X136194800Y-73660000D03*
X138734800Y-73660000D03*
X141528800Y-73660000D03*
X144272000Y-73660000D03*
X147015200Y-73660000D03*
X149809200Y-73660000D03*
X152552400Y-73660000D03*
X155295600Y-73660000D03*
X158140400Y-73660000D03*
X160832800Y-73660000D03*
X163576000Y-73660000D03*
X166370000Y-73660000D03*
X176047400Y-88112600D03*
X173278800Y-88112600D03*
X170510200Y-88112600D03*
X167741600Y-88112600D03*
X164973000Y-88112600D03*
X162204400Y-88112600D03*
X159435800Y-88112600D03*
X156667200Y-88112600D03*
X153898600Y-88112600D03*
D11*
X182753000Y-89535000D03*
X119253000Y-89535000D03*
D12*
X151130000Y-88112600D03*
X148361400Y-88112600D03*
X145592800Y-88112600D03*
X142824200Y-88112600D03*
X140055600Y-88112600D03*
X137287000Y-88112600D03*
X134518400Y-88112600D03*
X131749800Y-88112600D03*
X128981200Y-88112600D03*
D13*
X126212600Y-88112600D03*
D12*
X174675800Y-90957400D03*
X171907200Y-90957400D03*
X169138600Y-90957400D03*
X166370000Y-90957400D03*
X163601400Y-90957400D03*
X160832800Y-90957400D03*
X158064200Y-90957400D03*
X155295600Y-90957400D03*
X152527000Y-90957400D03*
X149758400Y-90957400D03*
X146989800Y-90957400D03*
X144221200Y-90957400D03*
X141452600Y-90957400D03*
X138684000Y-90957400D03*
X135915400Y-90957400D03*
X133146800Y-90957400D03*
X130378200Y-90957400D03*
X127609600Y-90957400D03*
D14*
X158242000Y-82042000D03*
X160782000Y-82042000D03*
D15*
X134620000Y-76835000D02*
X134620000Y-76200000D01*
X160782000Y-82042000D02*
X158242000Y-82042000D01*
D16*
G36*
X186563000Y-93853000D02*
X185293440Y-93853000D01*
X185293440Y-89031979D01*
X184907563Y-88098085D01*
X184193673Y-87382948D01*
X183260454Y-86995441D01*
X182249979Y-86994560D01*
X181316085Y-87380437D01*
X180600948Y-88094327D01*
X180213441Y-89027546D01*
X180212560Y-90038021D01*
X180598437Y-90971915D01*
X181312327Y-91687052D01*
X182245546Y-92074559D01*
X183256021Y-92075440D01*
X184189915Y-91689563D01*
X184905052Y-90975673D01*
X185292559Y-90042454D01*
X185293440Y-89031979D01*
X185293440Y-93853000D01*
X177444642Y-93853000D01*
X177444642Y-87835939D01*
X177232410Y-87322297D01*
X177165440Y-87255209D01*
X177165440Y-73156979D01*
X176779563Y-72223085D01*
X176065673Y-71507948D01*
X175132454Y-71120441D01*
X174121979Y-71119560D01*
X173188085Y-71505437D01*
X172472948Y-72219327D01*
X172085441Y-73152546D01*
X172084560Y-74163021D01*
X172470437Y-75096915D01*
X173184327Y-75812052D01*
X174117546Y-76199559D01*
X175128021Y-76200440D01*
X176061915Y-75814563D01*
X176777052Y-75100673D01*
X177164559Y-74167454D01*
X177165440Y-73156979D01*
X177165440Y-87255209D01*
X176839770Y-86928971D01*
X176326500Y-86715843D01*
X175770739Y-86715358D01*
X175257097Y-86927590D01*
X174863771Y-87320230D01*
X174662868Y-87804057D01*
X174463810Y-87322297D01*
X174071170Y-86928971D01*
X173557900Y-86715843D01*
X173002139Y-86715358D01*
X172488497Y-86927590D01*
X172095171Y-87320230D01*
X171894268Y-87804057D01*
X171695210Y-87322297D01*
X171302570Y-86928971D01*
X170789300Y-86715843D01*
X170233539Y-86715358D01*
X169719897Y-86927590D01*
X169326571Y-87320230D01*
X169164000Y-87711743D01*
X169164000Y-77088310D01*
X169164000Y-76835691D01*
X169164000Y-75311691D01*
X169067327Y-75078302D01*
X168888699Y-74899673D01*
X168655310Y-74803000D01*
X168402691Y-74803000D01*
X167202386Y-74803000D01*
X167553629Y-74452370D01*
X167766757Y-73939100D01*
X167767242Y-73383339D01*
X167555010Y-72869697D01*
X167162370Y-72476371D01*
X166649100Y-72263243D01*
X166093339Y-72262758D01*
X165579697Y-72474990D01*
X165186371Y-72867630D01*
X164973243Y-73380900D01*
X164973240Y-73383336D01*
X164761010Y-72869697D01*
X164368370Y-72476371D01*
X163855100Y-72263243D01*
X163299339Y-72262758D01*
X162785697Y-72474990D01*
X162392371Y-72867630D01*
X162204200Y-73320796D01*
X162017810Y-72869697D01*
X161625170Y-72476371D01*
X161111900Y-72263243D01*
X160556139Y-72262758D01*
X160042497Y-72474990D01*
X159649171Y-72867630D01*
X159486462Y-73259475D01*
X159325410Y-72869697D01*
X158932770Y-72476371D01*
X158419500Y-72263243D01*
X157863739Y-72262758D01*
X157350097Y-72474990D01*
X156956771Y-72867630D01*
X156743643Y-73380900D01*
X156743158Y-73936661D01*
X156955390Y-74450303D01*
X157348030Y-74843629D01*
X157861300Y-75056757D01*
X158417061Y-75057242D01*
X158930703Y-74845010D01*
X159324029Y-74452370D01*
X159486737Y-74060524D01*
X159647790Y-74450303D01*
X160040430Y-74843629D01*
X160553700Y-75056757D01*
X161109461Y-75057242D01*
X161623103Y-74845010D01*
X162016429Y-74452370D01*
X162204599Y-73999203D01*
X162390990Y-74450303D01*
X162783630Y-74843629D01*
X163296900Y-75056757D01*
X163852661Y-75057242D01*
X164366303Y-74845010D01*
X164759629Y-74452370D01*
X164972757Y-73939100D01*
X164972759Y-73936663D01*
X165184990Y-74450303D01*
X165577630Y-74843629D01*
X166090900Y-75056757D01*
X166487870Y-75057103D01*
X166466673Y-75078301D01*
X166370000Y-75311690D01*
X166370000Y-75564309D01*
X166370000Y-75922753D01*
X166158010Y-75409697D01*
X165765370Y-75016371D01*
X165252100Y-74803243D01*
X164696339Y-74802758D01*
X164182697Y-75014990D01*
X163789371Y-75407630D01*
X163576243Y-75920900D01*
X163576240Y-75923336D01*
X163364010Y-75409697D01*
X162971370Y-75016371D01*
X162458100Y-74803243D01*
X161902339Y-74802758D01*
X161388697Y-75014990D01*
X160995371Y-75407630D01*
X160845394Y-75768814D01*
X160697010Y-75409697D01*
X160304370Y-75016371D01*
X159791100Y-74803243D01*
X159235339Y-74802758D01*
X158721697Y-75014990D01*
X158328371Y-75407630D01*
X158115243Y-75920900D01*
X158115240Y-75923336D01*
X157903010Y-75409697D01*
X157510370Y-75016371D01*
X156997100Y-74803243D01*
X156704744Y-74802987D01*
X156704744Y-73867698D01*
X156676962Y-73312632D01*
X156517997Y-72928857D01*
X156275813Y-72859392D01*
X156096208Y-73038997D01*
X156096208Y-72679787D01*
X156026743Y-72437603D01*
X155503298Y-72250856D01*
X154948232Y-72278638D01*
X154564457Y-72437603D01*
X154494992Y-72679787D01*
X155295600Y-73480395D01*
X156096208Y-72679787D01*
X156096208Y-73038997D01*
X155475205Y-73660000D01*
X156275813Y-74460608D01*
X156517997Y-74391143D01*
X156704744Y-73867698D01*
X156704744Y-74802987D01*
X156441339Y-74802758D01*
X156096208Y-74945362D01*
X156096208Y-74640213D01*
X155295600Y-73839605D01*
X155115995Y-74019210D01*
X155115995Y-73660000D01*
X154315387Y-72859392D01*
X154073203Y-72928857D01*
X153934072Y-73318834D01*
X153933762Y-73312632D01*
X153774797Y-72928857D01*
X153532613Y-72859392D01*
X153353008Y-73038997D01*
X153353008Y-72679787D01*
X153283543Y-72437603D01*
X152760098Y-72250856D01*
X152205032Y-72278638D01*
X151821257Y-72437603D01*
X151751792Y-72679787D01*
X152552400Y-73480395D01*
X153353008Y-72679787D01*
X153353008Y-73038997D01*
X152732005Y-73660000D01*
X153532613Y-74460608D01*
X153774797Y-74391143D01*
X153913927Y-74001165D01*
X153914238Y-74007368D01*
X154073203Y-74391143D01*
X154315387Y-74460608D01*
X155115995Y-73660000D01*
X155115995Y-74019210D01*
X154494992Y-74640213D01*
X154564457Y-74882397D01*
X155087902Y-75069144D01*
X155642968Y-75041362D01*
X156026743Y-74882397D01*
X156096208Y-74640213D01*
X156096208Y-74945362D01*
X155927697Y-75014990D01*
X155534371Y-75407630D01*
X155321243Y-75920900D01*
X155321240Y-75923336D01*
X155109010Y-75409697D01*
X154716370Y-75016371D01*
X154203100Y-74803243D01*
X153647339Y-74802758D01*
X153353008Y-74924372D01*
X153353008Y-74640213D01*
X152552400Y-73839605D01*
X152372795Y-74019210D01*
X152372795Y-73660000D01*
X151572187Y-72859392D01*
X151330003Y-72928857D01*
X151190872Y-73318834D01*
X151190562Y-73312632D01*
X151031597Y-72928857D01*
X150789413Y-72859392D01*
X150609808Y-73038997D01*
X150609808Y-72679787D01*
X150540343Y-72437603D01*
X150016898Y-72250856D01*
X149461832Y-72278638D01*
X149078057Y-72437603D01*
X149008592Y-72679787D01*
X149809200Y-73480395D01*
X150609808Y-72679787D01*
X150609808Y-73038997D01*
X149988805Y-73660000D01*
X150789413Y-74460608D01*
X151031597Y-74391143D01*
X151170727Y-74001165D01*
X151171038Y-74007368D01*
X151330003Y-74391143D01*
X151572187Y-74460608D01*
X152372795Y-73660000D01*
X152372795Y-74019210D01*
X151751792Y-74640213D01*
X151821257Y-74882397D01*
X152344702Y-75069144D01*
X152899768Y-75041362D01*
X153283543Y-74882397D01*
X153353008Y-74640213D01*
X153353008Y-74924372D01*
X153133697Y-75014990D01*
X152740371Y-75407630D01*
X152527243Y-75920900D01*
X152527240Y-75923336D01*
X152315010Y-75409697D01*
X151922370Y-75016371D01*
X151409100Y-74803243D01*
X150853339Y-74802758D01*
X150609808Y-74903382D01*
X150609808Y-74640213D01*
X149809200Y-73839605D01*
X149629595Y-74019210D01*
X149629595Y-73660000D01*
X148828987Y-72859392D01*
X148586803Y-72928857D01*
X148403122Y-73443706D01*
X148396562Y-73312632D01*
X148237597Y-72928857D01*
X147995413Y-72859392D01*
X147815808Y-73038997D01*
X147815808Y-72679787D01*
X147746343Y-72437603D01*
X147222898Y-72250856D01*
X146667832Y-72278638D01*
X146284057Y-72437603D01*
X146214592Y-72679787D01*
X147015200Y-73480395D01*
X147815808Y-72679787D01*
X147815808Y-73038997D01*
X147194805Y-73660000D01*
X147995413Y-74460608D01*
X148237597Y-74391143D01*
X148421277Y-73876293D01*
X148427838Y-74007368D01*
X148586803Y-74391143D01*
X148828987Y-74460608D01*
X149629595Y-73660000D01*
X149629595Y-74019210D01*
X149008592Y-74640213D01*
X149078057Y-74882397D01*
X149601502Y-75069144D01*
X150156568Y-75041362D01*
X150540343Y-74882397D01*
X150609808Y-74640213D01*
X150609808Y-74903382D01*
X150339697Y-75014990D01*
X149946371Y-75407630D01*
X149796394Y-75768814D01*
X149648010Y-75409697D01*
X149255370Y-75016371D01*
X148742100Y-74803243D01*
X148186339Y-74802758D01*
X147815808Y-74955857D01*
X147815808Y-74640213D01*
X147015200Y-73839605D01*
X146835595Y-74019210D01*
X146835595Y-73660000D01*
X146034987Y-72859392D01*
X145792803Y-72928857D01*
X145653672Y-73318834D01*
X145653362Y-73312632D01*
X145494397Y-72928857D01*
X145252213Y-72859392D01*
X145072608Y-73038997D01*
X145072608Y-72679787D01*
X145003143Y-72437603D01*
X144479698Y-72250856D01*
X143924632Y-72278638D01*
X143540857Y-72437603D01*
X143471392Y-72679787D01*
X144272000Y-73480395D01*
X145072608Y-72679787D01*
X145072608Y-73038997D01*
X144451605Y-73660000D01*
X145252213Y-74460608D01*
X145494397Y-74391143D01*
X145633527Y-74001165D01*
X145633838Y-74007368D01*
X145792803Y-74391143D01*
X146034987Y-74460608D01*
X146835595Y-73660000D01*
X146835595Y-74019210D01*
X146214592Y-74640213D01*
X146284057Y-74882397D01*
X146807502Y-75069144D01*
X147362568Y-75041362D01*
X147746343Y-74882397D01*
X147815808Y-74640213D01*
X147815808Y-74955857D01*
X147672697Y-75014990D01*
X147279371Y-75407630D01*
X147066243Y-75920900D01*
X147066240Y-75923336D01*
X146854010Y-75409697D01*
X146461370Y-75016371D01*
X145948100Y-74803243D01*
X145392339Y-74802758D01*
X145072608Y-74934867D01*
X145072608Y-74640213D01*
X144272000Y-73839605D01*
X144092395Y-74019210D01*
X144092395Y-73660000D01*
X143291787Y-72859392D01*
X143049603Y-72928857D01*
X142910472Y-73318834D01*
X142910162Y-73312632D01*
X142751197Y-72928857D01*
X142509013Y-72859392D01*
X142329408Y-73038997D01*
X142329408Y-72679787D01*
X142259943Y-72437603D01*
X141736498Y-72250856D01*
X141181432Y-72278638D01*
X140797657Y-72437603D01*
X140728192Y-72679787D01*
X141528800Y-73480395D01*
X142329408Y-72679787D01*
X142329408Y-73038997D01*
X141708405Y-73660000D01*
X142509013Y-74460608D01*
X142751197Y-74391143D01*
X142890327Y-74001165D01*
X142890638Y-74007368D01*
X143049603Y-74391143D01*
X143291787Y-74460608D01*
X144092395Y-73660000D01*
X144092395Y-74019210D01*
X143471392Y-74640213D01*
X143540857Y-74882397D01*
X144064302Y-75069144D01*
X144619368Y-75041362D01*
X145003143Y-74882397D01*
X145072608Y-74640213D01*
X145072608Y-74934867D01*
X144878697Y-75014990D01*
X144485371Y-75407630D01*
X144272243Y-75920900D01*
X144272240Y-75923336D01*
X144060010Y-75409697D01*
X143667370Y-75016371D01*
X143154100Y-74803243D01*
X142598339Y-74802758D01*
X142329408Y-74913877D01*
X142329408Y-74640213D01*
X141528800Y-73839605D01*
X141349195Y-74019210D01*
X141349195Y-73660000D01*
X140548587Y-72859392D01*
X140306403Y-72928857D01*
X140122722Y-73443706D01*
X140116162Y-73312632D01*
X139957197Y-72928857D01*
X139715013Y-72859392D01*
X139535408Y-73038997D01*
X139535408Y-72679787D01*
X139465943Y-72437603D01*
X138942498Y-72250856D01*
X138387432Y-72278638D01*
X138003657Y-72437603D01*
X137934192Y-72679787D01*
X138734800Y-73480395D01*
X139535408Y-72679787D01*
X139535408Y-73038997D01*
X138914405Y-73660000D01*
X139715013Y-74460608D01*
X139957197Y-74391143D01*
X140140877Y-73876293D01*
X140147438Y-74007368D01*
X140306403Y-74391143D01*
X140548587Y-74460608D01*
X141349195Y-73660000D01*
X141349195Y-74019210D01*
X140728192Y-74640213D01*
X140797657Y-74882397D01*
X141321102Y-75069144D01*
X141876168Y-75041362D01*
X142259943Y-74882397D01*
X142329408Y-74640213D01*
X142329408Y-74913877D01*
X142084697Y-75014990D01*
X141691371Y-75407630D01*
X141478243Y-75920900D01*
X141478240Y-75923336D01*
X141266010Y-75409697D01*
X140873370Y-75016371D01*
X140360100Y-74803243D01*
X139804339Y-74802758D01*
X139535408Y-74913877D01*
X139535408Y-74640213D01*
X138734800Y-73839605D01*
X138555195Y-74019210D01*
X138555195Y-73660000D01*
X137754587Y-72859392D01*
X137512403Y-72928857D01*
X137462291Y-73069317D01*
X137379810Y-72869697D01*
X136987170Y-72476371D01*
X136473900Y-72263243D01*
X135918139Y-72262758D01*
X135404497Y-72474990D01*
X135011171Y-72867630D01*
X134798043Y-73380900D01*
X134797558Y-73936661D01*
X135009790Y-74450303D01*
X135402430Y-74843629D01*
X135915700Y-75056757D01*
X136471461Y-75057242D01*
X136985103Y-74845010D01*
X137378429Y-74452370D01*
X137458194Y-74260272D01*
X137512403Y-74391143D01*
X137754587Y-74460608D01*
X138555195Y-73660000D01*
X138555195Y-74019210D01*
X137934192Y-74640213D01*
X138003657Y-74882397D01*
X138527102Y-75069144D01*
X139082168Y-75041362D01*
X139465943Y-74882397D01*
X139535408Y-74640213D01*
X139535408Y-74913877D01*
X139290697Y-75014990D01*
X138897371Y-75407630D01*
X138747394Y-75768814D01*
X138599010Y-75409697D01*
X138206370Y-75016371D01*
X137693100Y-74803243D01*
X137137339Y-74802758D01*
X136623697Y-75014990D01*
X136230371Y-75407630D01*
X136017243Y-75920900D01*
X136017240Y-75923336D01*
X135805010Y-75409697D01*
X135412370Y-75016371D01*
X134899100Y-74803243D01*
X134343339Y-74802758D01*
X133829697Y-75014990D01*
X133436371Y-75407630D01*
X133223243Y-75920900D01*
X133222758Y-76476661D01*
X133434990Y-76990303D01*
X133827630Y-77383629D01*
X134340900Y-77596757D01*
X134491745Y-77596888D01*
X134620000Y-77622400D01*
X134747134Y-77597111D01*
X134896661Y-77597242D01*
X135410303Y-77385010D01*
X135803629Y-76992370D01*
X136016757Y-76479100D01*
X136016759Y-76476663D01*
X136228990Y-76990303D01*
X136621630Y-77383629D01*
X137134900Y-77596757D01*
X137690661Y-77597242D01*
X138204303Y-77385010D01*
X138597629Y-76992370D01*
X138747605Y-76631185D01*
X138895990Y-76990303D01*
X139288630Y-77383629D01*
X139801900Y-77596757D01*
X140357661Y-77597242D01*
X140871303Y-77385010D01*
X141264629Y-76992370D01*
X141477757Y-76479100D01*
X141477759Y-76476663D01*
X141689990Y-76990303D01*
X142082630Y-77383629D01*
X142595900Y-77596757D01*
X143151661Y-77597242D01*
X143665303Y-77385010D01*
X144058629Y-76992370D01*
X144271757Y-76479100D01*
X144271759Y-76476663D01*
X144483990Y-76990303D01*
X144876630Y-77383629D01*
X145389900Y-77596757D01*
X145945661Y-77597242D01*
X146459303Y-77385010D01*
X146852629Y-76992370D01*
X147065757Y-76479100D01*
X147065759Y-76476663D01*
X147277990Y-76990303D01*
X147670630Y-77383629D01*
X148183900Y-77596757D01*
X148739661Y-77597242D01*
X149253303Y-77385010D01*
X149646629Y-76992370D01*
X149796605Y-76631185D01*
X149944990Y-76990303D01*
X150337630Y-77383629D01*
X150850900Y-77596757D01*
X151406661Y-77597242D01*
X151920303Y-77385010D01*
X152313629Y-76992370D01*
X152526757Y-76479100D01*
X152526759Y-76476663D01*
X152738990Y-76990303D01*
X153131630Y-77383629D01*
X153644900Y-77596757D01*
X154200661Y-77597242D01*
X154714303Y-77385010D01*
X155107629Y-76992370D01*
X155320757Y-76479100D01*
X155320759Y-76476663D01*
X155532990Y-76990303D01*
X155925630Y-77383629D01*
X156438900Y-77596757D01*
X156994661Y-77597242D01*
X157508303Y-77385010D01*
X157901629Y-76992370D01*
X158114757Y-76479100D01*
X158114759Y-76476663D01*
X158326990Y-76990303D01*
X158719630Y-77383629D01*
X159232900Y-77596757D01*
X159788661Y-77597242D01*
X160302303Y-77385010D01*
X160695629Y-76992370D01*
X160845605Y-76631185D01*
X160993990Y-76990303D01*
X161386630Y-77383629D01*
X161899900Y-77596757D01*
X162455661Y-77597242D01*
X162969303Y-77385010D01*
X163362629Y-76992370D01*
X163575757Y-76479100D01*
X163575759Y-76476663D01*
X163787990Y-76990303D01*
X164180630Y-77383629D01*
X164693900Y-77596757D01*
X165249661Y-77597242D01*
X165763303Y-77385010D01*
X166156629Y-76992370D01*
X166369757Y-76479100D01*
X166370000Y-76200646D01*
X166370000Y-77088309D01*
X166466673Y-77321698D01*
X166645301Y-77500327D01*
X166878690Y-77597000D01*
X167131309Y-77597000D01*
X168655309Y-77597000D01*
X168888698Y-77500327D01*
X169067327Y-77321699D01*
X169164000Y-77088310D01*
X169164000Y-87711743D01*
X169125668Y-87804057D01*
X168926610Y-87322297D01*
X168533970Y-86928971D01*
X168020700Y-86715843D01*
X167464939Y-86715358D01*
X166951297Y-86927590D01*
X166557971Y-87320230D01*
X166357068Y-87804057D01*
X166158010Y-87322297D01*
X165765370Y-86928971D01*
X165252100Y-86715843D01*
X164696339Y-86715358D01*
X164182697Y-86927590D01*
X163789371Y-87320230D01*
X163588468Y-87804057D01*
X163389410Y-87322297D01*
X162996770Y-86928971D01*
X162483500Y-86715843D01*
X161927739Y-86715358D01*
X161861687Y-86742650D01*
X161861687Y-81828216D01*
X161697689Y-81431311D01*
X161394286Y-81127378D01*
X160997668Y-80962687D01*
X160568216Y-80962313D01*
X160171311Y-81126311D01*
X160042797Y-81254600D01*
X158981286Y-81254600D01*
X158854286Y-81127378D01*
X158457668Y-80962687D01*
X158028216Y-80962313D01*
X157631311Y-81126311D01*
X157327378Y-81429714D01*
X157162687Y-81826332D01*
X157162313Y-82255784D01*
X157326311Y-82652689D01*
X157629714Y-82956622D01*
X158026332Y-83121313D01*
X158455784Y-83121687D01*
X158852689Y-82957689D01*
X158981202Y-82829400D01*
X160042713Y-82829400D01*
X160169714Y-82956622D01*
X160566332Y-83121313D01*
X160995784Y-83121687D01*
X161392689Y-82957689D01*
X161696622Y-82654286D01*
X161861313Y-82257668D01*
X161861687Y-81828216D01*
X161861687Y-86742650D01*
X161414097Y-86927590D01*
X161020771Y-87320230D01*
X160819868Y-87804057D01*
X160620810Y-87322297D01*
X160228170Y-86928971D01*
X159714900Y-86715843D01*
X159159139Y-86715358D01*
X158645497Y-86927590D01*
X158252171Y-87320230D01*
X158051268Y-87804057D01*
X157852210Y-87322297D01*
X157459570Y-86928971D01*
X156946300Y-86715843D01*
X156390539Y-86715358D01*
X155876897Y-86927590D01*
X155483571Y-87320230D01*
X155282668Y-87804057D01*
X155083610Y-87322297D01*
X154690970Y-86928971D01*
X154177700Y-86715843D01*
X153621939Y-86715358D01*
X153108297Y-86927590D01*
X152714971Y-87320230D01*
X152514068Y-87804057D01*
X152315010Y-87322297D01*
X151922370Y-86928971D01*
X151409100Y-86715843D01*
X150853339Y-86715358D01*
X150339697Y-86927590D01*
X149946371Y-87320230D01*
X149745468Y-87804057D01*
X149546410Y-87322297D01*
X149153770Y-86928971D01*
X148640500Y-86715843D01*
X148084739Y-86715358D01*
X147571097Y-86927590D01*
X147177771Y-87320230D01*
X146976868Y-87804057D01*
X146777810Y-87322297D01*
X146385170Y-86928971D01*
X145871900Y-86715843D01*
X145316139Y-86715358D01*
X144802497Y-86927590D01*
X144409171Y-87320230D01*
X144208268Y-87804057D01*
X144009210Y-87322297D01*
X143616570Y-86928971D01*
X143103300Y-86715843D01*
X142547539Y-86715358D01*
X142033897Y-86927590D01*
X141640571Y-87320230D01*
X141439668Y-87804057D01*
X141240610Y-87322297D01*
X140847970Y-86928971D01*
X140334700Y-86715843D01*
X139778939Y-86715358D01*
X139265297Y-86927590D01*
X138871971Y-87320230D01*
X138671068Y-87804057D01*
X138472010Y-87322297D01*
X138079370Y-86928971D01*
X137566100Y-86715843D01*
X137010339Y-86715358D01*
X136496697Y-86927590D01*
X136103371Y-87320230D01*
X135902468Y-87804057D01*
X135703410Y-87322297D01*
X135310770Y-86928971D01*
X134797500Y-86715843D01*
X134241739Y-86715358D01*
X133728097Y-86927590D01*
X133334771Y-87320230D01*
X133133868Y-87804057D01*
X132934810Y-87322297D01*
X132542170Y-86928971D01*
X132028900Y-86715843D01*
X131473139Y-86715358D01*
X130959497Y-86927590D01*
X130566171Y-87320230D01*
X130364587Y-87805697D01*
X130362562Y-87765232D01*
X130203597Y-87381457D01*
X130175440Y-87373380D01*
X130175440Y-73156979D01*
X129789563Y-72223085D01*
X129075673Y-71507948D01*
X128142454Y-71120441D01*
X127131979Y-71119560D01*
X126198085Y-71505437D01*
X125482948Y-72219327D01*
X125095441Y-73152546D01*
X125094560Y-74163021D01*
X125480437Y-75096915D01*
X126194327Y-75812052D01*
X127127546Y-76199559D01*
X128138021Y-76200440D01*
X129071915Y-75814563D01*
X129787052Y-75100673D01*
X130174559Y-74167454D01*
X130175440Y-73156979D01*
X130175440Y-87373380D01*
X129961413Y-87311992D01*
X129781808Y-87491597D01*
X129781808Y-87132387D01*
X129712343Y-86890203D01*
X129188898Y-86703456D01*
X128633832Y-86731238D01*
X128250057Y-86890203D01*
X128180592Y-87132387D01*
X128981200Y-87932995D01*
X129781808Y-87132387D01*
X129781808Y-87491597D01*
X129160805Y-88112600D01*
X129961413Y-88913208D01*
X130203597Y-88843743D01*
X130359632Y-88406381D01*
X130564790Y-88902903D01*
X130957430Y-89296229D01*
X131470700Y-89509357D01*
X132026461Y-89509842D01*
X132540103Y-89297610D01*
X132933429Y-88904970D01*
X133134331Y-88421142D01*
X133333390Y-88902903D01*
X133726030Y-89296229D01*
X134239300Y-89509357D01*
X134795061Y-89509842D01*
X135308703Y-89297610D01*
X135702029Y-88904970D01*
X135902931Y-88421142D01*
X136101990Y-88902903D01*
X136494630Y-89296229D01*
X137007900Y-89509357D01*
X137563661Y-89509842D01*
X138077303Y-89297610D01*
X138470629Y-88904970D01*
X138671531Y-88421142D01*
X138870590Y-88902903D01*
X139263230Y-89296229D01*
X139776500Y-89509357D01*
X140332261Y-89509842D01*
X140845903Y-89297610D01*
X141239229Y-88904970D01*
X141440131Y-88421142D01*
X141639190Y-88902903D01*
X142031830Y-89296229D01*
X142545100Y-89509357D01*
X143100861Y-89509842D01*
X143614503Y-89297610D01*
X144007829Y-88904970D01*
X144208731Y-88421142D01*
X144407790Y-88902903D01*
X144800430Y-89296229D01*
X145313700Y-89509357D01*
X145869461Y-89509842D01*
X146383103Y-89297610D01*
X146776429Y-88904970D01*
X146977331Y-88421142D01*
X147176390Y-88902903D01*
X147569030Y-89296229D01*
X148082300Y-89509357D01*
X148638061Y-89509842D01*
X149151703Y-89297610D01*
X149545029Y-88904970D01*
X149745931Y-88421142D01*
X149944990Y-88902903D01*
X150337630Y-89296229D01*
X150850900Y-89509357D01*
X151406661Y-89509842D01*
X151920303Y-89297610D01*
X152313629Y-88904970D01*
X152514531Y-88421142D01*
X152713590Y-88902903D01*
X153106230Y-89296229D01*
X153619500Y-89509357D01*
X154175261Y-89509842D01*
X154688903Y-89297610D01*
X155082229Y-88904970D01*
X155283131Y-88421142D01*
X155482190Y-88902903D01*
X155874830Y-89296229D01*
X156388100Y-89509357D01*
X156943861Y-89509842D01*
X157457503Y-89297610D01*
X157850829Y-88904970D01*
X158051731Y-88421142D01*
X158250790Y-88902903D01*
X158643430Y-89296229D01*
X159156700Y-89509357D01*
X159712461Y-89509842D01*
X160226103Y-89297610D01*
X160619429Y-88904970D01*
X160820331Y-88421142D01*
X161019390Y-88902903D01*
X161412030Y-89296229D01*
X161925300Y-89509357D01*
X162481061Y-89509842D01*
X162994703Y-89297610D01*
X163388029Y-88904970D01*
X163588931Y-88421142D01*
X163787990Y-88902903D01*
X164180630Y-89296229D01*
X164693900Y-89509357D01*
X165249661Y-89509842D01*
X165763303Y-89297610D01*
X166156629Y-88904970D01*
X166357531Y-88421142D01*
X166556590Y-88902903D01*
X166949230Y-89296229D01*
X167462500Y-89509357D01*
X168018261Y-89509842D01*
X168531903Y-89297610D01*
X168925229Y-88904970D01*
X169126131Y-88421142D01*
X169325190Y-88902903D01*
X169717830Y-89296229D01*
X170231100Y-89509357D01*
X170786861Y-89509842D01*
X171300503Y-89297610D01*
X171693829Y-88904970D01*
X171894731Y-88421142D01*
X172093790Y-88902903D01*
X172486430Y-89296229D01*
X172999700Y-89509357D01*
X173555461Y-89509842D01*
X174069103Y-89297610D01*
X174462429Y-88904970D01*
X174663331Y-88421142D01*
X174862390Y-88902903D01*
X175255030Y-89296229D01*
X175768300Y-89509357D01*
X176324061Y-89509842D01*
X176837703Y-89297610D01*
X177231029Y-88904970D01*
X177444157Y-88391700D01*
X177444642Y-87835939D01*
X177444642Y-93853000D01*
X176073042Y-93853000D01*
X176073042Y-90680739D01*
X175860810Y-90167097D01*
X175468170Y-89773771D01*
X174954900Y-89560643D01*
X174399139Y-89560158D01*
X173885497Y-89772390D01*
X173492171Y-90165030D01*
X173291268Y-90648857D01*
X173092210Y-90167097D01*
X172699570Y-89773771D01*
X172186300Y-89560643D01*
X171630539Y-89560158D01*
X171116897Y-89772390D01*
X170723571Y-90165030D01*
X170522668Y-90648857D01*
X170323610Y-90167097D01*
X169930970Y-89773771D01*
X169417700Y-89560643D01*
X168861939Y-89560158D01*
X168348297Y-89772390D01*
X167954971Y-90165030D01*
X167754068Y-90648857D01*
X167555010Y-90167097D01*
X167162370Y-89773771D01*
X166649100Y-89560643D01*
X166093339Y-89560158D01*
X165579697Y-89772390D01*
X165186371Y-90165030D01*
X164985468Y-90648857D01*
X164786410Y-90167097D01*
X164393770Y-89773771D01*
X163880500Y-89560643D01*
X163324739Y-89560158D01*
X162811097Y-89772390D01*
X162417771Y-90165030D01*
X162216868Y-90648857D01*
X162017810Y-90167097D01*
X161625170Y-89773771D01*
X161111900Y-89560643D01*
X160556139Y-89560158D01*
X160042497Y-89772390D01*
X159649171Y-90165030D01*
X159448268Y-90648857D01*
X159249210Y-90167097D01*
X158856570Y-89773771D01*
X158343300Y-89560643D01*
X157787539Y-89560158D01*
X157273897Y-89772390D01*
X156880571Y-90165030D01*
X156679668Y-90648857D01*
X156480610Y-90167097D01*
X156087970Y-89773771D01*
X155574700Y-89560643D01*
X155018939Y-89560158D01*
X154505297Y-89772390D01*
X154111971Y-90165030D01*
X153911068Y-90648857D01*
X153712010Y-90167097D01*
X153319370Y-89773771D01*
X152806100Y-89560643D01*
X152250339Y-89560158D01*
X151736697Y-89772390D01*
X151343371Y-90165030D01*
X151142468Y-90648857D01*
X150943410Y-90167097D01*
X150550770Y-89773771D01*
X150037500Y-89560643D01*
X149481739Y-89560158D01*
X148968097Y-89772390D01*
X148574771Y-90165030D01*
X148373868Y-90648857D01*
X148174810Y-90167097D01*
X147782170Y-89773771D01*
X147268900Y-89560643D01*
X146713139Y-89560158D01*
X146199497Y-89772390D01*
X145806171Y-90165030D01*
X145605268Y-90648857D01*
X145406210Y-90167097D01*
X145013570Y-89773771D01*
X144500300Y-89560643D01*
X143944539Y-89560158D01*
X143430897Y-89772390D01*
X143037571Y-90165030D01*
X142836668Y-90648857D01*
X142637610Y-90167097D01*
X142244970Y-89773771D01*
X141731700Y-89560643D01*
X141175939Y-89560158D01*
X140662297Y-89772390D01*
X140268971Y-90165030D01*
X140068068Y-90648857D01*
X139869010Y-90167097D01*
X139476370Y-89773771D01*
X138963100Y-89560643D01*
X138407339Y-89560158D01*
X137893697Y-89772390D01*
X137500371Y-90165030D01*
X137299468Y-90648857D01*
X137100410Y-90167097D01*
X136707770Y-89773771D01*
X136194500Y-89560643D01*
X135638739Y-89560158D01*
X135125097Y-89772390D01*
X134731771Y-90165030D01*
X134530868Y-90648857D01*
X134331810Y-90167097D01*
X133939170Y-89773771D01*
X133425900Y-89560643D01*
X132870139Y-89560158D01*
X132356497Y-89772390D01*
X131963171Y-90165030D01*
X131761587Y-90650497D01*
X131759562Y-90610032D01*
X131600597Y-90226257D01*
X131358413Y-90156792D01*
X131178808Y-90336397D01*
X131178808Y-89977187D01*
X131109343Y-89735003D01*
X130585898Y-89548256D01*
X130030832Y-89576038D01*
X129781808Y-89679187D01*
X129781808Y-89092813D01*
X128981200Y-88292205D01*
X128801595Y-88471810D01*
X128801595Y-88112600D01*
X128000987Y-87311992D01*
X127758803Y-87381457D01*
X127609600Y-87799667D01*
X127609600Y-87476909D01*
X127609600Y-87224290D01*
X127512927Y-86990901D01*
X127334298Y-86812273D01*
X127100909Y-86715600D01*
X126498350Y-86715600D01*
X126339600Y-86874350D01*
X126339600Y-87985600D01*
X126359600Y-87985600D01*
X126359600Y-88239600D01*
X126339600Y-88239600D01*
X126339600Y-89350850D01*
X126498350Y-89509600D01*
X127100909Y-89509600D01*
X127334298Y-89412927D01*
X127512927Y-89234299D01*
X127609600Y-89000910D01*
X127609600Y-88748291D01*
X127609600Y-88483535D01*
X127758803Y-88843743D01*
X128000987Y-88913208D01*
X128801595Y-88112600D01*
X128801595Y-88471810D01*
X128180592Y-89092813D01*
X128250057Y-89334997D01*
X128773502Y-89521744D01*
X129328568Y-89493962D01*
X129712343Y-89334997D01*
X129781808Y-89092813D01*
X129781808Y-89679187D01*
X129647057Y-89735003D01*
X129577592Y-89977187D01*
X130378200Y-90777795D01*
X131178808Y-89977187D01*
X131178808Y-90336397D01*
X130557805Y-90957400D01*
X131358413Y-91758008D01*
X131600597Y-91688543D01*
X131756632Y-91251181D01*
X131961790Y-91747703D01*
X132354430Y-92141029D01*
X132867700Y-92354157D01*
X133423461Y-92354642D01*
X133937103Y-92142410D01*
X134330429Y-91749770D01*
X134531331Y-91265942D01*
X134730390Y-91747703D01*
X135123030Y-92141029D01*
X135636300Y-92354157D01*
X136192061Y-92354642D01*
X136705703Y-92142410D01*
X137099029Y-91749770D01*
X137299931Y-91265942D01*
X137498990Y-91747703D01*
X137891630Y-92141029D01*
X138404900Y-92354157D01*
X138960661Y-92354642D01*
X139474303Y-92142410D01*
X139867629Y-91749770D01*
X140068531Y-91265942D01*
X140267590Y-91747703D01*
X140660230Y-92141029D01*
X141173500Y-92354157D01*
X141729261Y-92354642D01*
X142242903Y-92142410D01*
X142636229Y-91749770D01*
X142837131Y-91265942D01*
X143036190Y-91747703D01*
X143428830Y-92141029D01*
X143942100Y-92354157D01*
X144497861Y-92354642D01*
X145011503Y-92142410D01*
X145404829Y-91749770D01*
X145605731Y-91265942D01*
X145804790Y-91747703D01*
X146197430Y-92141029D01*
X146710700Y-92354157D01*
X147266461Y-92354642D01*
X147780103Y-92142410D01*
X148173429Y-91749770D01*
X148374331Y-91265942D01*
X148573390Y-91747703D01*
X148966030Y-92141029D01*
X149479300Y-92354157D01*
X150035061Y-92354642D01*
X150548703Y-92142410D01*
X150942029Y-91749770D01*
X151142931Y-91265942D01*
X151341990Y-91747703D01*
X151734630Y-92141029D01*
X152247900Y-92354157D01*
X152803661Y-92354642D01*
X153317303Y-92142410D01*
X153710629Y-91749770D01*
X153911531Y-91265942D01*
X154110590Y-91747703D01*
X154503230Y-92141029D01*
X155016500Y-92354157D01*
X155572261Y-92354642D01*
X156085903Y-92142410D01*
X156479229Y-91749770D01*
X156680131Y-91265942D01*
X156879190Y-91747703D01*
X157271830Y-92141029D01*
X157785100Y-92354157D01*
X158340861Y-92354642D01*
X158854503Y-92142410D01*
X159247829Y-91749770D01*
X159448731Y-91265942D01*
X159647790Y-91747703D01*
X160040430Y-92141029D01*
X160553700Y-92354157D01*
X161109461Y-92354642D01*
X161623103Y-92142410D01*
X162016429Y-91749770D01*
X162217331Y-91265942D01*
X162416390Y-91747703D01*
X162809030Y-92141029D01*
X163322300Y-92354157D01*
X163878061Y-92354642D01*
X164391703Y-92142410D01*
X164785029Y-91749770D01*
X164985931Y-91265942D01*
X165184990Y-91747703D01*
X165577630Y-92141029D01*
X166090900Y-92354157D01*
X166646661Y-92354642D01*
X167160303Y-92142410D01*
X167553629Y-91749770D01*
X167754531Y-91265942D01*
X167953590Y-91747703D01*
X168346230Y-92141029D01*
X168859500Y-92354157D01*
X169415261Y-92354642D01*
X169928903Y-92142410D01*
X170322229Y-91749770D01*
X170523131Y-91265942D01*
X170722190Y-91747703D01*
X171114830Y-92141029D01*
X171628100Y-92354157D01*
X172183861Y-92354642D01*
X172697503Y-92142410D01*
X173090829Y-91749770D01*
X173291731Y-91265942D01*
X173490790Y-91747703D01*
X173883430Y-92141029D01*
X174396700Y-92354157D01*
X174952461Y-92354642D01*
X175466103Y-92142410D01*
X175859429Y-91749770D01*
X176072557Y-91236500D01*
X176073042Y-90680739D01*
X176073042Y-93853000D01*
X131178808Y-93853000D01*
X131178808Y-91937613D01*
X130378200Y-91137005D01*
X130198595Y-91316610D01*
X130198595Y-90957400D01*
X129397987Y-90156792D01*
X129155803Y-90226257D01*
X128994397Y-90678670D01*
X128990962Y-90610032D01*
X128831997Y-90226257D01*
X128589813Y-90156792D01*
X128410208Y-90336397D01*
X128410208Y-89977187D01*
X128340743Y-89735003D01*
X127817298Y-89548256D01*
X127262232Y-89576038D01*
X126878457Y-89735003D01*
X126808992Y-89977187D01*
X127609600Y-90777795D01*
X128410208Y-89977187D01*
X128410208Y-90336397D01*
X127789205Y-90957400D01*
X128589813Y-91758008D01*
X128831997Y-91688543D01*
X128993402Y-91236129D01*
X128996838Y-91304768D01*
X129155803Y-91688543D01*
X129397987Y-91758008D01*
X130198595Y-90957400D01*
X130198595Y-91316610D01*
X129577592Y-91937613D01*
X129647057Y-92179797D01*
X130170502Y-92366544D01*
X130725568Y-92338762D01*
X131109343Y-92179797D01*
X131178808Y-91937613D01*
X131178808Y-93853000D01*
X128410208Y-93853000D01*
X128410208Y-91937613D01*
X127609600Y-91137005D01*
X127429995Y-91316610D01*
X127429995Y-90957400D01*
X126629387Y-90156792D01*
X126387203Y-90226257D01*
X126200456Y-90749702D01*
X126228238Y-91304768D01*
X126387203Y-91688543D01*
X126629387Y-91758008D01*
X127429995Y-90957400D01*
X127429995Y-91316610D01*
X126808992Y-91937613D01*
X126878457Y-92179797D01*
X127401902Y-92366544D01*
X127956968Y-92338762D01*
X128340743Y-92179797D01*
X128410208Y-91937613D01*
X128410208Y-93853000D01*
X126085600Y-93853000D01*
X126085600Y-89350850D01*
X126085600Y-88239600D01*
X126085600Y-87985600D01*
X126085600Y-86874350D01*
X125926850Y-86715600D01*
X125324291Y-86715600D01*
X125090902Y-86812273D01*
X124912273Y-86990901D01*
X124815600Y-87224290D01*
X124815600Y-87476909D01*
X124815600Y-87826850D01*
X124974350Y-87985600D01*
X126085600Y-87985600D01*
X126085600Y-88239600D01*
X124974350Y-88239600D01*
X124815600Y-88398350D01*
X124815600Y-88748291D01*
X124815600Y-89000910D01*
X124912273Y-89234299D01*
X125090902Y-89412927D01*
X125324291Y-89509600D01*
X125926850Y-89509600D01*
X126085600Y-89350850D01*
X126085600Y-93853000D01*
X121793440Y-93853000D01*
X121793440Y-89031979D01*
X121407563Y-88098085D01*
X120693673Y-87382948D01*
X119760454Y-86995441D01*
X118749979Y-86994560D01*
X117816085Y-87380437D01*
X117100948Y-88094327D01*
X116713441Y-89027546D01*
X116712560Y-90038021D01*
X117098437Y-90971915D01*
X117812327Y-91687052D01*
X118745546Y-92074559D01*
X119756021Y-92075440D01*
X120689915Y-91689563D01*
X121405052Y-90975673D01*
X121792559Y-90042454D01*
X121793440Y-89031979D01*
X121793440Y-93853000D01*
X115697000Y-93853000D01*
X115697000Y-69977000D01*
X186563000Y-69977000D01*
X186563000Y-93853000D01*
X186563000Y-93853000D01*
G37*
X186563000Y-93853000D02*
X185293440Y-93853000D01*
X185293440Y-89031979D01*
X184907563Y-88098085D01*
X184193673Y-87382948D01*
X183260454Y-86995441D01*
X182249979Y-86994560D01*
X181316085Y-87380437D01*
X180600948Y-88094327D01*
X180213441Y-89027546D01*
X180212560Y-90038021D01*
X180598437Y-90971915D01*
X181312327Y-91687052D01*
X182245546Y-92074559D01*
X183256021Y-92075440D01*
X184189915Y-91689563D01*
X184905052Y-90975673D01*
X185292559Y-90042454D01*
X185293440Y-89031979D01*
X185293440Y-93853000D01*
X177444642Y-93853000D01*
X177444642Y-87835939D01*
X177232410Y-87322297D01*
X177165440Y-87255209D01*
X177165440Y-73156979D01*
X176779563Y-72223085D01*
X176065673Y-71507948D01*
X175132454Y-71120441D01*
X174121979Y-71119560D01*
X173188085Y-71505437D01*
X172472948Y-72219327D01*
X172085441Y-73152546D01*
X172084560Y-74163021D01*
X172470437Y-75096915D01*
X173184327Y-75812052D01*
X174117546Y-76199559D01*
X175128021Y-76200440D01*
X176061915Y-75814563D01*
X176777052Y-75100673D01*
X177164559Y-74167454D01*
X177165440Y-73156979D01*
X177165440Y-87255209D01*
X176839770Y-86928971D01*
X176326500Y-86715843D01*
X175770739Y-86715358D01*
X175257097Y-86927590D01*
X174863771Y-87320230D01*
X174662868Y-87804057D01*
X174463810Y-87322297D01*
X174071170Y-86928971D01*
X173557900Y-86715843D01*
X173002139Y-86715358D01*
X172488497Y-86927590D01*
X172095171Y-87320230D01*
X171894268Y-87804057D01*
X171695210Y-87322297D01*
X171302570Y-86928971D01*
X170789300Y-86715843D01*
X170233539Y-86715358D01*
X169719897Y-86927590D01*
X169326571Y-87320230D01*
X169164000Y-87711743D01*
X169164000Y-77088310D01*
X169164000Y-76835691D01*
X169164000Y-75311691D01*
X169067327Y-75078302D01*
X168888699Y-74899673D01*
X168655310Y-74803000D01*
X168402691Y-74803000D01*
X167202386Y-74803000D01*
X167553629Y-74452370D01*
X167766757Y-73939100D01*
X167767242Y-73383339D01*
X167555010Y-72869697D01*
X167162370Y-72476371D01*
X166649100Y-72263243D01*
X166093339Y-72262758D01*
X165579697Y-72474990D01*
X165186371Y-72867630D01*
X164973243Y-73380900D01*
X164973240Y-73383336D01*
X164761010Y-72869697D01*
X164368370Y-72476371D01*
X163855100Y-72263243D01*
X163299339Y-72262758D01*
X162785697Y-72474990D01*
X162392371Y-72867630D01*
X162204200Y-73320796D01*
X162017810Y-72869697D01*
X161625170Y-72476371D01*
X161111900Y-72263243D01*
X160556139Y-72262758D01*
X160042497Y-72474990D01*
X159649171Y-72867630D01*
X159486462Y-73259475D01*
X159325410Y-72869697D01*
X158932770Y-72476371D01*
X158419500Y-72263243D01*
X157863739Y-72262758D01*
X157350097Y-72474990D01*
X156956771Y-72867630D01*
X156743643Y-73380900D01*
X156743158Y-73936661D01*
X156955390Y-74450303D01*
X157348030Y-74843629D01*
X157861300Y-75056757D01*
X158417061Y-75057242D01*
X158930703Y-74845010D01*
X159324029Y-74452370D01*
X159486737Y-74060524D01*
X159647790Y-74450303D01*
X160040430Y-74843629D01*
X160553700Y-75056757D01*
X161109461Y-75057242D01*
X161623103Y-74845010D01*
X162016429Y-74452370D01*
X162204599Y-73999203D01*
X162390990Y-74450303D01*
X162783630Y-74843629D01*
X163296900Y-75056757D01*
X163852661Y-75057242D01*
X164366303Y-74845010D01*
X164759629Y-74452370D01*
X164972757Y-73939100D01*
X164972759Y-73936663D01*
X165184990Y-74450303D01*
X165577630Y-74843629D01*
X166090900Y-75056757D01*
X166487870Y-75057103D01*
X166466673Y-75078301D01*
X166370000Y-75311690D01*
X166370000Y-75564309D01*
X166370000Y-75922753D01*
X166158010Y-75409697D01*
X165765370Y-75016371D01*
X165252100Y-74803243D01*
X164696339Y-74802758D01*
X164182697Y-75014990D01*
X163789371Y-75407630D01*
X163576243Y-75920900D01*
X163576240Y-75923336D01*
X163364010Y-75409697D01*
X162971370Y-75016371D01*
X162458100Y-74803243D01*
X161902339Y-74802758D01*
X161388697Y-75014990D01*
X160995371Y-75407630D01*
X160845394Y-75768814D01*
X160697010Y-75409697D01*
X160304370Y-75016371D01*
X159791100Y-74803243D01*
X159235339Y-74802758D01*
X158721697Y-75014990D01*
X158328371Y-75407630D01*
X158115243Y-75920900D01*
X158115240Y-75923336D01*
X157903010Y-75409697D01*
X157510370Y-75016371D01*
X156997100Y-74803243D01*
X156704744Y-74802987D01*
X156704744Y-73867698D01*
X156676962Y-73312632D01*
X156517997Y-72928857D01*
X156275813Y-72859392D01*
X156096208Y-73038997D01*
X156096208Y-72679787D01*
X156026743Y-72437603D01*
X155503298Y-72250856D01*
X154948232Y-72278638D01*
X154564457Y-72437603D01*
X154494992Y-72679787D01*
X155295600Y-73480395D01*
X156096208Y-72679787D01*
X156096208Y-73038997D01*
X155475205Y-73660000D01*
X156275813Y-74460608D01*
X156517997Y-74391143D01*
X156704744Y-73867698D01*
X156704744Y-74802987D01*
X156441339Y-74802758D01*
X156096208Y-74945362D01*
X156096208Y-74640213D01*
X155295600Y-73839605D01*
X155115995Y-74019210D01*
X155115995Y-73660000D01*
X154315387Y-72859392D01*
X154073203Y-72928857D01*
X153934072Y-73318834D01*
X153933762Y-73312632D01*
X153774797Y-72928857D01*
X153532613Y-72859392D01*
X153353008Y-73038997D01*
X153353008Y-72679787D01*
X153283543Y-72437603D01*
X152760098Y-72250856D01*
X152205032Y-72278638D01*
X151821257Y-72437603D01*
X151751792Y-72679787D01*
X152552400Y-73480395D01*
X153353008Y-72679787D01*
X153353008Y-73038997D01*
X152732005Y-73660000D01*
X153532613Y-74460608D01*
X153774797Y-74391143D01*
X153913927Y-74001165D01*
X153914238Y-74007368D01*
X154073203Y-74391143D01*
X154315387Y-74460608D01*
X155115995Y-73660000D01*
X155115995Y-74019210D01*
X154494992Y-74640213D01*
X154564457Y-74882397D01*
X155087902Y-75069144D01*
X155642968Y-75041362D01*
X156026743Y-74882397D01*
X156096208Y-74640213D01*
X156096208Y-74945362D01*
X155927697Y-75014990D01*
X155534371Y-75407630D01*
X155321243Y-75920900D01*
X155321240Y-75923336D01*
X155109010Y-75409697D01*
X154716370Y-75016371D01*
X154203100Y-74803243D01*
X153647339Y-74802758D01*
X153353008Y-74924372D01*
X153353008Y-74640213D01*
X152552400Y-73839605D01*
X152372795Y-74019210D01*
X152372795Y-73660000D01*
X151572187Y-72859392D01*
X151330003Y-72928857D01*
X151190872Y-73318834D01*
X151190562Y-73312632D01*
X151031597Y-72928857D01*
X150789413Y-72859392D01*
X150609808Y-73038997D01*
X150609808Y-72679787D01*
X150540343Y-72437603D01*
X150016898Y-72250856D01*
X149461832Y-72278638D01*
X149078057Y-72437603D01*
X149008592Y-72679787D01*
X149809200Y-73480395D01*
X150609808Y-72679787D01*
X150609808Y-73038997D01*
X149988805Y-73660000D01*
X150789413Y-74460608D01*
X151031597Y-74391143D01*
X151170727Y-74001165D01*
X151171038Y-74007368D01*
X151330003Y-74391143D01*
X151572187Y-74460608D01*
X152372795Y-73660000D01*
X152372795Y-74019210D01*
X151751792Y-74640213D01*
X151821257Y-74882397D01*
X152344702Y-75069144D01*
X152899768Y-75041362D01*
X153283543Y-74882397D01*
X153353008Y-74640213D01*
X153353008Y-74924372D01*
X153133697Y-75014990D01*
X152740371Y-75407630D01*
X152527243Y-75920900D01*
X152527240Y-75923336D01*
X152315010Y-75409697D01*
X151922370Y-75016371D01*
X151409100Y-74803243D01*
X150853339Y-74802758D01*
X150609808Y-74903382D01*
X150609808Y-74640213D01*
X149809200Y-73839605D01*
X149629595Y-74019210D01*
X149629595Y-73660000D01*
X148828987Y-72859392D01*
X148586803Y-72928857D01*
X148403122Y-73443706D01*
X148396562Y-73312632D01*
X148237597Y-72928857D01*
X147995413Y-72859392D01*
X147815808Y-73038997D01*
X147815808Y-72679787D01*
X147746343Y-72437603D01*
X147222898Y-72250856D01*
X146667832Y-72278638D01*
X146284057Y-72437603D01*
X146214592Y-72679787D01*
X147015200Y-73480395D01*
X147815808Y-72679787D01*
X147815808Y-73038997D01*
X147194805Y-73660000D01*
X147995413Y-74460608D01*
X148237597Y-74391143D01*
X148421277Y-73876293D01*
X148427838Y-74007368D01*
X148586803Y-74391143D01*
X148828987Y-74460608D01*
X149629595Y-73660000D01*
X149629595Y-74019210D01*
X149008592Y-74640213D01*
X149078057Y-74882397D01*
X149601502Y-75069144D01*
X150156568Y-75041362D01*
X150540343Y-74882397D01*
X150609808Y-74640213D01*
X150609808Y-74903382D01*
X150339697Y-75014990D01*
X149946371Y-75407630D01*
X149796394Y-75768814D01*
X149648010Y-75409697D01*
X149255370Y-75016371D01*
X148742100Y-74803243D01*
X148186339Y-74802758D01*
X147815808Y-74955857D01*
X147815808Y-74640213D01*
X147015200Y-73839605D01*
X146835595Y-74019210D01*
X146835595Y-73660000D01*
X146034987Y-72859392D01*
X145792803Y-72928857D01*
X145653672Y-73318834D01*
X145653362Y-73312632D01*
X145494397Y-72928857D01*
X145252213Y-72859392D01*
X145072608Y-73038997D01*
X145072608Y-72679787D01*
X145003143Y-72437603D01*
X144479698Y-72250856D01*
X143924632Y-72278638D01*
X143540857Y-72437603D01*
X143471392Y-72679787D01*
X144272000Y-73480395D01*
X145072608Y-72679787D01*
X145072608Y-73038997D01*
X144451605Y-73660000D01*
X145252213Y-74460608D01*
X145494397Y-74391143D01*
X145633527Y-74001165D01*
X145633838Y-74007368D01*
X145792803Y-74391143D01*
X146034987Y-74460608D01*
X146835595Y-73660000D01*
X146835595Y-74019210D01*
X146214592Y-74640213D01*
X146284057Y-74882397D01*
X146807502Y-75069144D01*
X147362568Y-75041362D01*
X147746343Y-74882397D01*
X147815808Y-74640213D01*
X147815808Y-74955857D01*
X147672697Y-75014990D01*
X147279371Y-75407630D01*
X147066243Y-75920900D01*
X147066240Y-75923336D01*
X146854010Y-75409697D01*
X146461370Y-75016371D01*
X145948100Y-74803243D01*
X145392339Y-74802758D01*
X145072608Y-74934867D01*
X145072608Y-74640213D01*
X144272000Y-73839605D01*
X144092395Y-74019210D01*
X144092395Y-73660000D01*
X143291787Y-72859392D01*
X143049603Y-72928857D01*
X142910472Y-73318834D01*
X142910162Y-73312632D01*
X142751197Y-72928857D01*
X142509013Y-72859392D01*
X142329408Y-73038997D01*
X142329408Y-72679787D01*
X142259943Y-72437603D01*
X141736498Y-72250856D01*
X141181432Y-72278638D01*
X140797657Y-72437603D01*
X140728192Y-72679787D01*
X141528800Y-73480395D01*
X142329408Y-72679787D01*
X142329408Y-73038997D01*
X141708405Y-73660000D01*
X142509013Y-74460608D01*
X142751197Y-74391143D01*
X142890327Y-74001165D01*
X142890638Y-74007368D01*
X143049603Y-74391143D01*
X143291787Y-74460608D01*
X144092395Y-73660000D01*
X144092395Y-74019210D01*
X143471392Y-74640213D01*
X143540857Y-74882397D01*
X144064302Y-75069144D01*
X144619368Y-75041362D01*
X145003143Y-74882397D01*
X145072608Y-74640213D01*
X145072608Y-74934867D01*
X144878697Y-75014990D01*
X144485371Y-75407630D01*
X144272243Y-75920900D01*
X144272240Y-75923336D01*
X144060010Y-75409697D01*
X143667370Y-75016371D01*
X143154100Y-74803243D01*
X142598339Y-74802758D01*
X142329408Y-74913877D01*
X142329408Y-74640213D01*
X141528800Y-73839605D01*
X141349195Y-74019210D01*
X141349195Y-73660000D01*
X140548587Y-72859392D01*
X140306403Y-72928857D01*
X140122722Y-73443706D01*
X140116162Y-73312632D01*
X139957197Y-72928857D01*
X139715013Y-72859392D01*
X139535408Y-73038997D01*
X139535408Y-72679787D01*
X139465943Y-72437603D01*
X138942498Y-72250856D01*
X138387432Y-72278638D01*
X138003657Y-72437603D01*
X137934192Y-72679787D01*
X138734800Y-73480395D01*
X139535408Y-72679787D01*
X139535408Y-73038997D01*
X138914405Y-73660000D01*
X139715013Y-74460608D01*
X139957197Y-74391143D01*
X140140877Y-73876293D01*
X140147438Y-74007368D01*
X140306403Y-74391143D01*
X140548587Y-74460608D01*
X141349195Y-73660000D01*
X141349195Y-74019210D01*
X140728192Y-74640213D01*
X140797657Y-74882397D01*
X141321102Y-75069144D01*
X141876168Y-75041362D01*
X142259943Y-74882397D01*
X142329408Y-74640213D01*
X142329408Y-74913877D01*
X142084697Y-75014990D01*
X141691371Y-75407630D01*
X141478243Y-75920900D01*
X141478240Y-75923336D01*
X141266010Y-75409697D01*
X140873370Y-75016371D01*
X140360100Y-74803243D01*
X139804339Y-74802758D01*
X139535408Y-74913877D01*
X139535408Y-74640213D01*
X138734800Y-73839605D01*
X138555195Y-74019210D01*
X138555195Y-73660000D01*
X137754587Y-72859392D01*
X137512403Y-72928857D01*
X137462291Y-73069317D01*
X137379810Y-72869697D01*
X136987170Y-72476371D01*
X136473900Y-72263243D01*
X135918139Y-72262758D01*
X135404497Y-72474990D01*
X135011171Y-72867630D01*
X134798043Y-73380900D01*
X134797558Y-73936661D01*
X135009790Y-74450303D01*
X135402430Y-74843629D01*
X135915700Y-75056757D01*
X136471461Y-75057242D01*
X136985103Y-74845010D01*
X137378429Y-74452370D01*
X137458194Y-74260272D01*
X137512403Y-74391143D01*
X137754587Y-74460608D01*
X138555195Y-73660000D01*
X138555195Y-74019210D01*
X137934192Y-74640213D01*
X138003657Y-74882397D01*
X138527102Y-75069144D01*
X139082168Y-75041362D01*
X139465943Y-74882397D01*
X139535408Y-74640213D01*
X139535408Y-74913877D01*
X139290697Y-75014990D01*
X138897371Y-75407630D01*
X138747394Y-75768814D01*
X138599010Y-75409697D01*
X138206370Y-75016371D01*
X137693100Y-74803243D01*
X137137339Y-74802758D01*
X136623697Y-75014990D01*
X136230371Y-75407630D01*
X136017243Y-75920900D01*
X136017240Y-75923336D01*
X135805010Y-75409697D01*
X135412370Y-75016371D01*
X134899100Y-74803243D01*
X134343339Y-74802758D01*
X133829697Y-75014990D01*
X133436371Y-75407630D01*
X133223243Y-75920900D01*
X133222758Y-76476661D01*
X133434990Y-76990303D01*
X133827630Y-77383629D01*
X134340900Y-77596757D01*
X134491745Y-77596888D01*
X134620000Y-77622400D01*
X134747134Y-77597111D01*
X134896661Y-77597242D01*
X135410303Y-77385010D01*
X135803629Y-76992370D01*
X136016757Y-76479100D01*
X136016759Y-76476663D01*
X136228990Y-76990303D01*
X136621630Y-77383629D01*
X137134900Y-77596757D01*
X137690661Y-77597242D01*
X138204303Y-77385010D01*
X138597629Y-76992370D01*
X138747605Y-76631185D01*
X138895990Y-76990303D01*
X139288630Y-77383629D01*
X139801900Y-77596757D01*
X140357661Y-77597242D01*
X140871303Y-77385010D01*
X141264629Y-76992370D01*
X141477757Y-76479100D01*
X141477759Y-76476663D01*
X141689990Y-76990303D01*
X142082630Y-77383629D01*
X142595900Y-77596757D01*
X143151661Y-77597242D01*
X143665303Y-77385010D01*
X144058629Y-76992370D01*
X144271757Y-76479100D01*
X144271759Y-76476663D01*
X144483990Y-76990303D01*
X144876630Y-77383629D01*
X145389900Y-77596757D01*
X145945661Y-77597242D01*
X146459303Y-77385010D01*
X146852629Y-76992370D01*
X147065757Y-76479100D01*
X147065759Y-76476663D01*
X147277990Y-76990303D01*
X147670630Y-77383629D01*
X148183900Y-77596757D01*
X148739661Y-77597242D01*
X149253303Y-77385010D01*
X149646629Y-76992370D01*
X149796605Y-76631185D01*
X149944990Y-76990303D01*
X150337630Y-77383629D01*
X150850900Y-77596757D01*
X151406661Y-77597242D01*
X151920303Y-77385010D01*
X152313629Y-76992370D01*
X152526757Y-76479100D01*
X152526759Y-76476663D01*
X152738990Y-76990303D01*
X153131630Y-77383629D01*
X153644900Y-77596757D01*
X154200661Y-77597242D01*
X154714303Y-77385010D01*
X155107629Y-76992370D01*
X155320757Y-76479100D01*
X155320759Y-76476663D01*
X155532990Y-76990303D01*
X155925630Y-77383629D01*
X156438900Y-77596757D01*
X156994661Y-77597242D01*
X157508303Y-77385010D01*
X157901629Y-76992370D01*
X158114757Y-76479100D01*
X158114759Y-76476663D01*
X158326990Y-76990303D01*
X158719630Y-77383629D01*
X159232900Y-77596757D01*
X159788661Y-77597242D01*
X160302303Y-77385010D01*
X160695629Y-76992370D01*
X160845605Y-76631185D01*
X160993990Y-76990303D01*
X161386630Y-77383629D01*
X161899900Y-77596757D01*
X162455661Y-77597242D01*
X162969303Y-77385010D01*
X163362629Y-76992370D01*
X163575757Y-76479100D01*
X163575759Y-76476663D01*
X163787990Y-76990303D01*
X164180630Y-77383629D01*
X164693900Y-77596757D01*
X165249661Y-77597242D01*
X165763303Y-77385010D01*
X166156629Y-76992370D01*
X166369757Y-76479100D01*
X166370000Y-76200646D01*
X166370000Y-77088309D01*
X166466673Y-77321698D01*
X166645301Y-77500327D01*
X166878690Y-77597000D01*
X167131309Y-77597000D01*
X168655309Y-77597000D01*
X168888698Y-77500327D01*
X169067327Y-77321699D01*
X169164000Y-77088310D01*
X169164000Y-87711743D01*
X169125668Y-87804057D01*
X168926610Y-87322297D01*
X168533970Y-86928971D01*
X168020700Y-86715843D01*
X167464939Y-86715358D01*
X166951297Y-86927590D01*
X166557971Y-87320230D01*
X166357068Y-87804057D01*
X166158010Y-87322297D01*
X165765370Y-86928971D01*
X165252100Y-86715843D01*
X164696339Y-86715358D01*
X164182697Y-86927590D01*
X163789371Y-87320230D01*
X163588468Y-87804057D01*
X163389410Y-87322297D01*
X162996770Y-86928971D01*
X162483500Y-86715843D01*
X161927739Y-86715358D01*
X161861687Y-86742650D01*
X161861687Y-81828216D01*
X161697689Y-81431311D01*
X161394286Y-81127378D01*
X160997668Y-80962687D01*
X160568216Y-80962313D01*
X160171311Y-81126311D01*
X160042797Y-81254600D01*
X158981286Y-81254600D01*
X158854286Y-81127378D01*
X158457668Y-80962687D01*
X158028216Y-80962313D01*
X157631311Y-81126311D01*
X157327378Y-81429714D01*
X157162687Y-81826332D01*
X157162313Y-82255784D01*
X157326311Y-82652689D01*
X157629714Y-82956622D01*
X158026332Y-83121313D01*
X158455784Y-83121687D01*
X158852689Y-82957689D01*
X158981202Y-82829400D01*
X160042713Y-82829400D01*
X160169714Y-82956622D01*
X160566332Y-83121313D01*
X160995784Y-83121687D01*
X161392689Y-82957689D01*
X161696622Y-82654286D01*
X161861313Y-82257668D01*
X161861687Y-81828216D01*
X161861687Y-86742650D01*
X161414097Y-86927590D01*
X161020771Y-87320230D01*
X160819868Y-87804057D01*
X160620810Y-87322297D01*
X160228170Y-86928971D01*
X159714900Y-86715843D01*
X159159139Y-86715358D01*
X158645497Y-86927590D01*
X158252171Y-87320230D01*
X158051268Y-87804057D01*
X157852210Y-87322297D01*
X157459570Y-86928971D01*
X156946300Y-86715843D01*
X156390539Y-86715358D01*
X155876897Y-86927590D01*
X155483571Y-87320230D01*
X155282668Y-87804057D01*
X155083610Y-87322297D01*
X154690970Y-86928971D01*
X154177700Y-86715843D01*
X153621939Y-86715358D01*
X153108297Y-86927590D01*
X152714971Y-87320230D01*
X152514068Y-87804057D01*
X152315010Y-87322297D01*
X151922370Y-86928971D01*
X151409100Y-86715843D01*
X150853339Y-86715358D01*
X150339697Y-86927590D01*
X149946371Y-87320230D01*
X149745468Y-87804057D01*
X149546410Y-87322297D01*
X149153770Y-86928971D01*
X148640500Y-86715843D01*
X148084739Y-86715358D01*
X147571097Y-86927590D01*
X147177771Y-87320230D01*
X146976868Y-87804057D01*
X146777810Y-87322297D01*
X146385170Y-86928971D01*
X145871900Y-86715843D01*
X145316139Y-86715358D01*
X144802497Y-86927590D01*
X144409171Y-87320230D01*
X144208268Y-87804057D01*
X144009210Y-87322297D01*
X143616570Y-86928971D01*
X143103300Y-86715843D01*
X142547539Y-86715358D01*
X142033897Y-86927590D01*
X141640571Y-87320230D01*
X141439668Y-87804057D01*
X141240610Y-87322297D01*
X140847970Y-86928971D01*
X140334700Y-86715843D01*
X139778939Y-86715358D01*
X139265297Y-86927590D01*
X138871971Y-87320230D01*
X138671068Y-87804057D01*
X138472010Y-87322297D01*
X138079370Y-86928971D01*
X137566100Y-86715843D01*
X137010339Y-86715358D01*
X136496697Y-86927590D01*
X136103371Y-87320230D01*
X135902468Y-87804057D01*
X135703410Y-87322297D01*
X135310770Y-86928971D01*
X134797500Y-86715843D01*
X134241739Y-86715358D01*
X133728097Y-86927590D01*
X133334771Y-87320230D01*
X133133868Y-87804057D01*
X132934810Y-87322297D01*
X132542170Y-86928971D01*
X132028900Y-86715843D01*
X131473139Y-86715358D01*
X130959497Y-86927590D01*
X130566171Y-87320230D01*
X130364587Y-87805697D01*
X130362562Y-87765232D01*
X130203597Y-87381457D01*
X130175440Y-87373380D01*
X130175440Y-73156979D01*
X129789563Y-72223085D01*
X129075673Y-71507948D01*
X128142454Y-71120441D01*
X127131979Y-71119560D01*
X126198085Y-71505437D01*
X125482948Y-72219327D01*
X125095441Y-73152546D01*
X125094560Y-74163021D01*
X125480437Y-75096915D01*
X126194327Y-75812052D01*
X127127546Y-76199559D01*
X128138021Y-76200440D01*
X129071915Y-75814563D01*
X129787052Y-75100673D01*
X130174559Y-74167454D01*
X130175440Y-73156979D01*
X130175440Y-87373380D01*
X129961413Y-87311992D01*
X129781808Y-87491597D01*
X129781808Y-87132387D01*
X129712343Y-86890203D01*
X129188898Y-86703456D01*
X128633832Y-86731238D01*
X128250057Y-86890203D01*
X128180592Y-87132387D01*
X128981200Y-87932995D01*
X129781808Y-87132387D01*
X129781808Y-87491597D01*
X129160805Y-88112600D01*
X129961413Y-88913208D01*
X130203597Y-88843743D01*
X130359632Y-88406381D01*
X130564790Y-88902903D01*
X130957430Y-89296229D01*
X131470700Y-89509357D01*
X132026461Y-89509842D01*
X132540103Y-89297610D01*
X132933429Y-88904970D01*
X133134331Y-88421142D01*
X133333390Y-88902903D01*
X133726030Y-89296229D01*
X134239300Y-89509357D01*
X134795061Y-89509842D01*
X135308703Y-89297610D01*
X135702029Y-88904970D01*
X135902931Y-88421142D01*
X136101990Y-88902903D01*
X136494630Y-89296229D01*
X137007900Y-89509357D01*
X137563661Y-89509842D01*
X138077303Y-89297610D01*
X138470629Y-88904970D01*
X138671531Y-88421142D01*
X138870590Y-88902903D01*
X139263230Y-89296229D01*
X139776500Y-89509357D01*
X140332261Y-89509842D01*
X140845903Y-89297610D01*
X141239229Y-88904970D01*
X141440131Y-88421142D01*
X141639190Y-88902903D01*
X142031830Y-89296229D01*
X142545100Y-89509357D01*
X143100861Y-89509842D01*
X143614503Y-89297610D01*
X144007829Y-88904970D01*
X144208731Y-88421142D01*
X144407790Y-88902903D01*
X144800430Y-89296229D01*
X145313700Y-89509357D01*
X145869461Y-89509842D01*
X146383103Y-89297610D01*
X146776429Y-88904970D01*
X146977331Y-88421142D01*
X147176390Y-88902903D01*
X147569030Y-89296229D01*
X148082300Y-89509357D01*
X148638061Y-89509842D01*
X149151703Y-89297610D01*
X149545029Y-88904970D01*
X149745931Y-88421142D01*
X149944990Y-88902903D01*
X150337630Y-89296229D01*
X150850900Y-89509357D01*
X151406661Y-89509842D01*
X151920303Y-89297610D01*
X152313629Y-88904970D01*
X152514531Y-88421142D01*
X152713590Y-88902903D01*
X153106230Y-89296229D01*
X153619500Y-89509357D01*
X154175261Y-89509842D01*
X154688903Y-89297610D01*
X155082229Y-88904970D01*
X155283131Y-88421142D01*
X155482190Y-88902903D01*
X155874830Y-89296229D01*
X156388100Y-89509357D01*
X156943861Y-89509842D01*
X157457503Y-89297610D01*
X157850829Y-88904970D01*
X158051731Y-88421142D01*
X158250790Y-88902903D01*
X158643430Y-89296229D01*
X159156700Y-89509357D01*
X159712461Y-89509842D01*
X160226103Y-89297610D01*
X160619429Y-88904970D01*
X160820331Y-88421142D01*
X161019390Y-88902903D01*
X161412030Y-89296229D01*
X161925300Y-89509357D01*
X162481061Y-89509842D01*
X162994703Y-89297610D01*
X163388029Y-88904970D01*
X163588931Y-88421142D01*
X163787990Y-88902903D01*
X164180630Y-89296229D01*
X164693900Y-89509357D01*
X165249661Y-89509842D01*
X165763303Y-89297610D01*
X166156629Y-88904970D01*
X166357531Y-88421142D01*
X166556590Y-88902903D01*
X166949230Y-89296229D01*
X167462500Y-89509357D01*
X168018261Y-89509842D01*
X168531903Y-89297610D01*
X168925229Y-88904970D01*
X169126131Y-88421142D01*
X169325190Y-88902903D01*
X169717830Y-89296229D01*
X170231100Y-89509357D01*
X170786861Y-89509842D01*
X171300503Y-89297610D01*
X171693829Y-88904970D01*
X171894731Y-88421142D01*
X172093790Y-88902903D01*
X172486430Y-89296229D01*
X172999700Y-89509357D01*
X173555461Y-89509842D01*
X174069103Y-89297610D01*
X174462429Y-88904970D01*
X174663331Y-88421142D01*
X174862390Y-88902903D01*
X175255030Y-89296229D01*
X175768300Y-89509357D01*
X176324061Y-89509842D01*
X176837703Y-89297610D01*
X177231029Y-88904970D01*
X177444157Y-88391700D01*
X177444642Y-87835939D01*
X177444642Y-93853000D01*
X176073042Y-93853000D01*
X176073042Y-90680739D01*
X175860810Y-90167097D01*
X175468170Y-89773771D01*
X174954900Y-89560643D01*
X174399139Y-89560158D01*
X173885497Y-89772390D01*
X173492171Y-90165030D01*
X173291268Y-90648857D01*
X173092210Y-90167097D01*
X172699570Y-89773771D01*
X172186300Y-89560643D01*
X171630539Y-89560158D01*
X171116897Y-89772390D01*
X170723571Y-90165030D01*
X170522668Y-90648857D01*
X170323610Y-90167097D01*
X169930970Y-89773771D01*
X169417700Y-89560643D01*
X168861939Y-89560158D01*
X168348297Y-89772390D01*
X167954971Y-90165030D01*
X167754068Y-90648857D01*
X167555010Y-90167097D01*
X167162370Y-89773771D01*
X166649100Y-89560643D01*
X166093339Y-89560158D01*
X165579697Y-89772390D01*
X165186371Y-90165030D01*
X164985468Y-90648857D01*
X164786410Y-90167097D01*
X164393770Y-89773771D01*
X163880500Y-89560643D01*
X163324739Y-89560158D01*
X162811097Y-89772390D01*
X162417771Y-90165030D01*
X162216868Y-90648857D01*
X162017810Y-90167097D01*
X161625170Y-89773771D01*
X161111900Y-89560643D01*
X160556139Y-89560158D01*
X160042497Y-89772390D01*
X159649171Y-90165030D01*
X159448268Y-90648857D01*
X159249210Y-90167097D01*
X158856570Y-89773771D01*
X158343300Y-89560643D01*
X157787539Y-89560158D01*
X157273897Y-89772390D01*
X156880571Y-90165030D01*
X156679668Y-90648857D01*
X156480610Y-90167097D01*
X156087970Y-89773771D01*
X155574700Y-89560643D01*
X155018939Y-89560158D01*
X154505297Y-89772390D01*
X154111971Y-90165030D01*
X153911068Y-90648857D01*
X153712010Y-90167097D01*
X153319370Y-89773771D01*
X152806100Y-89560643D01*
X152250339Y-89560158D01*
X151736697Y-89772390D01*
X151343371Y-90165030D01*
X151142468Y-90648857D01*
X150943410Y-90167097D01*
X150550770Y-89773771D01*
X150037500Y-89560643D01*
X149481739Y-89560158D01*
X148968097Y-89772390D01*
X148574771Y-90165030D01*
X148373868Y-90648857D01*
X148174810Y-90167097D01*
X147782170Y-89773771D01*
X147268900Y-89560643D01*
X146713139Y-89560158D01*
X146199497Y-89772390D01*
X145806171Y-90165030D01*
X145605268Y-90648857D01*
X145406210Y-90167097D01*
X145013570Y-89773771D01*
X144500300Y-89560643D01*
X143944539Y-89560158D01*
X143430897Y-89772390D01*
X143037571Y-90165030D01*
X142836668Y-90648857D01*
X142637610Y-90167097D01*
X142244970Y-89773771D01*
X141731700Y-89560643D01*
X141175939Y-89560158D01*
X140662297Y-89772390D01*
X140268971Y-90165030D01*
X140068068Y-90648857D01*
X139869010Y-90167097D01*
X139476370Y-89773771D01*
X138963100Y-89560643D01*
X138407339Y-89560158D01*
X137893697Y-89772390D01*
X137500371Y-90165030D01*
X137299468Y-90648857D01*
X137100410Y-90167097D01*
X136707770Y-89773771D01*
X136194500Y-89560643D01*
X135638739Y-89560158D01*
X135125097Y-89772390D01*
X134731771Y-90165030D01*
X134530868Y-90648857D01*
X134331810Y-90167097D01*
X133939170Y-89773771D01*
X133425900Y-89560643D01*
X132870139Y-89560158D01*
X132356497Y-89772390D01*
X131963171Y-90165030D01*
X131761587Y-90650497D01*
X131759562Y-90610032D01*
X131600597Y-90226257D01*
X131358413Y-90156792D01*
X131178808Y-90336397D01*
X131178808Y-89977187D01*
X131109343Y-89735003D01*
X130585898Y-89548256D01*
X130030832Y-89576038D01*
X129781808Y-89679187D01*
X129781808Y-89092813D01*
X128981200Y-88292205D01*
X128801595Y-88471810D01*
X128801595Y-88112600D01*
X128000987Y-87311992D01*
X127758803Y-87381457D01*
X127609600Y-87799667D01*
X127609600Y-87476909D01*
X127609600Y-87224290D01*
X127512927Y-86990901D01*
X127334298Y-86812273D01*
X127100909Y-86715600D01*
X126498350Y-86715600D01*
X126339600Y-86874350D01*
X126339600Y-87985600D01*
X126359600Y-87985600D01*
X126359600Y-88239600D01*
X126339600Y-88239600D01*
X126339600Y-89350850D01*
X126498350Y-89509600D01*
X127100909Y-89509600D01*
X127334298Y-89412927D01*
X127512927Y-89234299D01*
X127609600Y-89000910D01*
X127609600Y-88748291D01*
X127609600Y-88483535D01*
X127758803Y-88843743D01*
X128000987Y-88913208D01*
X128801595Y-88112600D01*
X128801595Y-88471810D01*
X128180592Y-89092813D01*
X128250057Y-89334997D01*
X128773502Y-89521744D01*
X129328568Y-89493962D01*
X129712343Y-89334997D01*
X129781808Y-89092813D01*
X129781808Y-89679187D01*
X129647057Y-89735003D01*
X129577592Y-89977187D01*
X130378200Y-90777795D01*
X131178808Y-89977187D01*
X131178808Y-90336397D01*
X130557805Y-90957400D01*
X131358413Y-91758008D01*
X131600597Y-91688543D01*
X131756632Y-91251181D01*
X131961790Y-91747703D01*
X132354430Y-92141029D01*
X132867700Y-92354157D01*
X133423461Y-92354642D01*
X133937103Y-92142410D01*
X134330429Y-91749770D01*
X134531331Y-91265942D01*
X134730390Y-91747703D01*
X135123030Y-92141029D01*
X135636300Y-92354157D01*
X136192061Y-92354642D01*
X136705703Y-92142410D01*
X137099029Y-91749770D01*
X137299931Y-91265942D01*
X137498990Y-91747703D01*
X137891630Y-92141029D01*
X138404900Y-92354157D01*
X138960661Y-92354642D01*
X139474303Y-92142410D01*
X139867629Y-91749770D01*
X140068531Y-91265942D01*
X140267590Y-91747703D01*
X140660230Y-92141029D01*
X141173500Y-92354157D01*
X141729261Y-92354642D01*
X142242903Y-92142410D01*
X142636229Y-91749770D01*
X142837131Y-91265942D01*
X143036190Y-91747703D01*
X143428830Y-92141029D01*
X143942100Y-92354157D01*
X144497861Y-92354642D01*
X145011503Y-92142410D01*
X145404829Y-91749770D01*
X145605731Y-91265942D01*
X145804790Y-91747703D01*
X146197430Y-92141029D01*
X146710700Y-92354157D01*
X147266461Y-92354642D01*
X147780103Y-92142410D01*
X148173429Y-91749770D01*
X148374331Y-91265942D01*
X148573390Y-91747703D01*
X148966030Y-92141029D01*
X149479300Y-92354157D01*
X150035061Y-92354642D01*
X150548703Y-92142410D01*
X150942029Y-91749770D01*
X151142931Y-91265942D01*
X151341990Y-91747703D01*
X151734630Y-92141029D01*
X152247900Y-92354157D01*
X152803661Y-92354642D01*
X153317303Y-92142410D01*
X153710629Y-91749770D01*
X153911531Y-91265942D01*
X154110590Y-91747703D01*
X154503230Y-92141029D01*
X155016500Y-92354157D01*
X155572261Y-92354642D01*
X156085903Y-92142410D01*
X156479229Y-91749770D01*
X156680131Y-91265942D01*
X156879190Y-91747703D01*
X157271830Y-92141029D01*
X157785100Y-92354157D01*
X158340861Y-92354642D01*
X158854503Y-92142410D01*
X159247829Y-91749770D01*
X159448731Y-91265942D01*
X159647790Y-91747703D01*
X160040430Y-92141029D01*
X160553700Y-92354157D01*
X161109461Y-92354642D01*
X161623103Y-92142410D01*
X162016429Y-91749770D01*
X162217331Y-91265942D01*
X162416390Y-91747703D01*
X162809030Y-92141029D01*
X163322300Y-92354157D01*
X163878061Y-92354642D01*
X164391703Y-92142410D01*
X164785029Y-91749770D01*
X164985931Y-91265942D01*
X165184990Y-91747703D01*
X165577630Y-92141029D01*
X166090900Y-92354157D01*
X166646661Y-92354642D01*
X167160303Y-92142410D01*
X167553629Y-91749770D01*
X167754531Y-91265942D01*
X167953590Y-91747703D01*
X168346230Y-92141029D01*
X168859500Y-92354157D01*
X169415261Y-92354642D01*
X169928903Y-92142410D01*
X170322229Y-91749770D01*
X170523131Y-91265942D01*
X170722190Y-91747703D01*
X171114830Y-92141029D01*
X171628100Y-92354157D01*
X172183861Y-92354642D01*
X172697503Y-92142410D01*
X173090829Y-91749770D01*
X173291731Y-91265942D01*
X173490790Y-91747703D01*
X173883430Y-92141029D01*
X174396700Y-92354157D01*
X174952461Y-92354642D01*
X175466103Y-92142410D01*
X175859429Y-91749770D01*
X176072557Y-91236500D01*
X176073042Y-90680739D01*
X176073042Y-93853000D01*
X131178808Y-93853000D01*
X131178808Y-91937613D01*
X130378200Y-91137005D01*
X130198595Y-91316610D01*
X130198595Y-90957400D01*
X129397987Y-90156792D01*
X129155803Y-90226257D01*
X128994397Y-90678670D01*
X128990962Y-90610032D01*
X128831997Y-90226257D01*
X128589813Y-90156792D01*
X128410208Y-90336397D01*
X128410208Y-89977187D01*
X128340743Y-89735003D01*
X127817298Y-89548256D01*
X127262232Y-89576038D01*
X126878457Y-89735003D01*
X126808992Y-89977187D01*
X127609600Y-90777795D01*
X128410208Y-89977187D01*
X128410208Y-90336397D01*
X127789205Y-90957400D01*
X128589813Y-91758008D01*
X128831997Y-91688543D01*
X128993402Y-91236129D01*
X128996838Y-91304768D01*
X129155803Y-91688543D01*
X129397987Y-91758008D01*
X130198595Y-90957400D01*
X130198595Y-91316610D01*
X129577592Y-91937613D01*
X129647057Y-92179797D01*
X130170502Y-92366544D01*
X130725568Y-92338762D01*
X131109343Y-92179797D01*
X131178808Y-91937613D01*
X131178808Y-93853000D01*
X128410208Y-93853000D01*
X128410208Y-91937613D01*
X127609600Y-91137005D01*
X127429995Y-91316610D01*
X127429995Y-90957400D01*
X126629387Y-90156792D01*
X126387203Y-90226257D01*
X126200456Y-90749702D01*
X126228238Y-91304768D01*
X126387203Y-91688543D01*
X126629387Y-91758008D01*
X127429995Y-90957400D01*
X127429995Y-91316610D01*
X126808992Y-91937613D01*
X126878457Y-92179797D01*
X127401902Y-92366544D01*
X127956968Y-92338762D01*
X128340743Y-92179797D01*
X128410208Y-91937613D01*
X128410208Y-93853000D01*
X126085600Y-93853000D01*
X126085600Y-89350850D01*
X126085600Y-88239600D01*
X126085600Y-87985600D01*
X126085600Y-86874350D01*
X125926850Y-86715600D01*
X125324291Y-86715600D01*
X125090902Y-86812273D01*
X124912273Y-86990901D01*
X124815600Y-87224290D01*
X124815600Y-87476909D01*
X124815600Y-87826850D01*
X124974350Y-87985600D01*
X126085600Y-87985600D01*
X126085600Y-88239600D01*
X124974350Y-88239600D01*
X124815600Y-88398350D01*
X124815600Y-88748291D01*
X124815600Y-89000910D01*
X124912273Y-89234299D01*
X125090902Y-89412927D01*
X125324291Y-89509600D01*
X125926850Y-89509600D01*
X126085600Y-89350850D01*
X126085600Y-93853000D01*
X121793440Y-93853000D01*
X121793440Y-89031979D01*
X121407563Y-88098085D01*
X120693673Y-87382948D01*
X119760454Y-86995441D01*
X118749979Y-86994560D01*
X117816085Y-87380437D01*
X117100948Y-88094327D01*
X116713441Y-89027546D01*
X116712560Y-90038021D01*
X117098437Y-90971915D01*
X117812327Y-91687052D01*
X118745546Y-92074559D01*
X119756021Y-92075440D01*
X120689915Y-91689563D01*
X121405052Y-90975673D01*
X121792559Y-90042454D01*
X121793440Y-89031979D01*
X121793440Y-93853000D01*
X115697000Y-93853000D01*
X115697000Y-69977000D01*
X186563000Y-69977000D01*
X186563000Y-93853000D01*
M02*
