M48
INCH,TZ
T1C0.025
T2C0.040
T3C0.120
%
G90
G05
T1
X62300Y-32300
X63300Y-32300
T2
X49690Y-34690
X50240Y-35810
X50780Y-34690
X51330Y-35810
X51870Y-34690
X52420Y-35810
X52960Y-34690
X53000Y-30000
X53510Y-35810
X53620Y-29000
X54050Y-34690
X54100Y-30000
X54600Y-35810
X54620Y-29000
X55140Y-34690
X55150Y-30000
X55690Y-35810
X55720Y-29000
X56230Y-34690
X56250Y-30000
X56780Y-35810
X56800Y-29000
X57320Y-34690
X57350Y-30000
X57870Y-35810
X57880Y-29000
X58410Y-34690
X58450Y-30000
X58960Y-35810
X58980Y-29000
X59500Y-30000
X59500Y-34690
X60050Y-35810
X60060Y-29000
X60590Y-34690
X60600Y-30000
X61140Y-29000
X61140Y-35810
X61680Y-34690
X61700Y-30000
X62230Y-35810
X62260Y-29000
X62770Y-34690
X62800Y-30000
X63320Y-29000
X63320Y-35810
X63850Y-30000
X63860Y-34690
X64400Y-29000
X64410Y-35810
X64950Y-30000
X64950Y-34690
X65500Y-29000
X65500Y-35810
X66040Y-34690
X66050Y-30000
X66590Y-35810
X67130Y-34690
X67680Y-35810
X68220Y-34690
X68770Y-35810
X69310Y-34690
T3
X46950Y-35250
X50250Y-29000
X68750Y-29000
X71950Y-35250
T0
M30
