%FSLAX46Y46*%
G04 Gerber Fmt 4.6, Leading zero omitted, Abs format (unit mm)*
G04 Created by KiCad (PCBNEW (2014-08-05 BZR 5054)-product) date Thu 20 Aug 2015 06:52:16 PM PDT*
%MOMM*%
G01*
G04 APERTURE LIST*
%ADD10C,0.100000*%
%ADD11C,3.810000*%
%ADD12C,1.524000*%
%ADD13R,1.524000X1.524000*%
%ADD14C,0.889000*%
%ADD15C,0.304800*%
G04 APERTURE END LIST*
D10*
D11*
X174625000Y-73660000D03*
X127635000Y-73660000D03*
D12*
X134620000Y-76200000D03*
X137414000Y-76200000D03*
X140081000Y-76200000D03*
X142875000Y-76200000D03*
X145669000Y-76200000D03*
X148463000Y-76200000D03*
X151130000Y-76200000D03*
X153924000Y-76200000D03*
X156718000Y-76200000D03*
X159512000Y-76200000D03*
X162179000Y-76200000D03*
X164973000Y-76200000D03*
D13*
X167767000Y-76200000D03*
D12*
X136194800Y-73660000D03*
X138734800Y-73660000D03*
X141528800Y-73660000D03*
X144272000Y-73660000D03*
X147015200Y-73660000D03*
X149809200Y-73660000D03*
X152552400Y-73660000D03*
X155295600Y-73660000D03*
X158140400Y-73660000D03*
X160832800Y-73660000D03*
X163576000Y-73660000D03*
X166370000Y-73660000D03*
X176047400Y-88112600D03*
X173278800Y-88112600D03*
X170510200Y-88112600D03*
X167741600Y-88112600D03*
X164973000Y-88112600D03*
X162204400Y-88112600D03*
X159435800Y-88112600D03*
X156667200Y-88112600D03*
X153898600Y-88112600D03*
D11*
X182753000Y-89535000D03*
X119253000Y-89535000D03*
D12*
X151130000Y-88112600D03*
X148361400Y-88112600D03*
X145592800Y-88112600D03*
X142824200Y-88112600D03*
X140055600Y-88112600D03*
X137287000Y-88112600D03*
X134518400Y-88112600D03*
X131749800Y-88112600D03*
X128981200Y-88112600D03*
D13*
X126212600Y-88112600D03*
D12*
X174675800Y-90957400D03*
X171907200Y-90957400D03*
X169138600Y-90957400D03*
X166370000Y-90957400D03*
X163601400Y-90957400D03*
X160832800Y-90957400D03*
X158064200Y-90957400D03*
X155295600Y-90957400D03*
X152527000Y-90957400D03*
X149758400Y-90957400D03*
X146989800Y-90957400D03*
X144221200Y-90957400D03*
X141452600Y-90957400D03*
X138684000Y-90957400D03*
X135915400Y-90957400D03*
X133146800Y-90957400D03*
X130378200Y-90957400D03*
X127609600Y-90957400D03*
D14*
X158242000Y-82042000D03*
X160782000Y-82042000D03*
D15*
X134620000Y-76835000D02*
X134620000Y-76200000D01*
X144221200Y-86436200D02*
X134620000Y-76835000D01*
X144221200Y-90957400D02*
X144221200Y-86436200D01*
X145592800Y-85902800D02*
X137414000Y-77724000D01*
X137414000Y-77724000D02*
X137414000Y-76200000D01*
X145592800Y-88112600D02*
X145592800Y-85902800D01*
X146989800Y-85394800D02*
X140081000Y-78486000D01*
X140081000Y-78486000D02*
X140081000Y-76200000D01*
X146989800Y-90957400D02*
X146989800Y-85394800D01*
X148361400Y-84861400D02*
X142875000Y-79375000D01*
X142875000Y-79375000D02*
X142875000Y-76200000D01*
X148361400Y-88112600D02*
X148361400Y-84861400D01*
X145669000Y-79121000D02*
X145669000Y-76200000D01*
X152400000Y-85852000D02*
X145669000Y-79121000D01*
X152400000Y-88646000D02*
X152400000Y-85852000D01*
X153924000Y-90170000D02*
X152400000Y-88646000D01*
X153924000Y-91694000D02*
X153924000Y-90170000D01*
X154940000Y-92710000D02*
X153924000Y-91694000D01*
X164846000Y-92710000D02*
X154940000Y-92710000D01*
X166370000Y-91186000D02*
X164846000Y-92710000D01*
X166370000Y-90957400D02*
X166370000Y-91186000D01*
X159435800Y-87172800D02*
X148463000Y-76200000D01*
X159435800Y-88112600D02*
X159435800Y-87172800D01*
X151130000Y-76200000D02*
X151892000Y-76200000D01*
X152400000Y-74930000D02*
X151130000Y-76200000D01*
X154432000Y-74930000D02*
X152400000Y-74930000D01*
X155194000Y-75692000D02*
X154432000Y-74930000D01*
X155194000Y-78994000D02*
X155194000Y-75692000D01*
X158242000Y-82042000D02*
X155194000Y-78994000D01*
X166852600Y-88112600D02*
X160782000Y-82042000D01*
X167741600Y-88112600D02*
X166852600Y-88112600D01*
X160832800Y-86410800D02*
X153924000Y-79502000D01*
X153924000Y-79502000D02*
X153924000Y-76200000D01*
X160832800Y-90957400D02*
X160832800Y-86410800D01*
X157988000Y-74930000D02*
X156718000Y-76200000D01*
X169164000Y-74930000D02*
X157988000Y-74930000D01*
X169672000Y-75438000D02*
X169164000Y-74930000D01*
X169672000Y-78994000D02*
X169672000Y-75438000D01*
X178054000Y-87376000D02*
X169672000Y-78994000D01*
X178054000Y-90424000D02*
X178054000Y-87376000D01*
X175768000Y-92710000D02*
X178054000Y-90424000D01*
X170434000Y-92710000D02*
X175768000Y-92710000D01*
X169138600Y-91414600D02*
X170434000Y-92710000D01*
X169138600Y-90957400D02*
X169138600Y-91414600D01*
X162204400Y-85496400D02*
X159512000Y-82804000D01*
X159512000Y-82804000D02*
X159512000Y-76200000D01*
X162204400Y-88112600D02*
X162204400Y-85496400D01*
X163322000Y-77343000D02*
X162179000Y-76200000D01*
X163322000Y-81026000D02*
X163322000Y-77343000D01*
X170408600Y-88112600D02*
X163322000Y-81026000D01*
X170510200Y-88112600D02*
X170408600Y-88112600D01*
X164566600Y-90957400D02*
X165862000Y-89662000D01*
X165862000Y-89662000D02*
X170942000Y-89662000D01*
X170942000Y-89662000D02*
X171958000Y-88646000D01*
X171958000Y-88646000D02*
X171958000Y-86868000D01*
X171958000Y-86868000D02*
X164973000Y-79883000D01*
X164973000Y-79883000D02*
X164973000Y-76200000D01*
X163601400Y-90957400D02*
X164566600Y-90957400D01*
X155295600Y-85953600D02*
X147066000Y-77724000D01*
X147066000Y-77724000D02*
X147066000Y-75692000D01*
X147066000Y-75692000D02*
X148082000Y-74676000D01*
X148082000Y-74676000D02*
X148336000Y-74422000D01*
X148336000Y-74422000D02*
X148336000Y-72644000D01*
X148336000Y-72644000D02*
X149352000Y-71628000D01*
X149352000Y-71628000D02*
X161544000Y-71628000D01*
X161544000Y-71628000D02*
X163576000Y-73660000D01*
X155295600Y-90957400D02*
X155295600Y-85953600D01*
M02*
