%FSLAX46Y46*%
G04 Gerber Fmt 4.6, Leading zero omitted, Abs format (unit mm)*
G04 Created by KiCad (PCBNEW (2014-08-05 BZR 5054)-product) date Thu 20 Aug 2015 06:52:16 PM PDT*
%MOMM*%
G01*
G04 APERTURE LIST*
%ADD10C,0.100000*%
%ADD11C,0.150000*%
G04 APERTURE END LIST*
D10*
D11*
X177800000Y-63500000D02*
X177800000Y-77470000D01*
X170180000Y-68580000D02*
X170180000Y-77470000D01*
X172085000Y-63500000D02*
X172085000Y-68580000D01*
X130175000Y-63500000D02*
X130175000Y-68580000D01*
X132080000Y-68580000D02*
X132080000Y-77470000D01*
X124460000Y-77470000D02*
X124460000Y-63500000D01*
X177800000Y-68580000D02*
X170180000Y-68580000D01*
X124460000Y-68580000D02*
X132080000Y-68580000D01*
X171450000Y-66675000D02*
X171450000Y-63500000D01*
X130810000Y-66675000D02*
X130810000Y-63500000D01*
X171450000Y-56515000D02*
X171450000Y-62230000D01*
X130810000Y-56515000D02*
X130810000Y-62230000D01*
X177800000Y-63500000D02*
X177800000Y-62230000D01*
X177800000Y-62230000D02*
X124460000Y-62230000D01*
X124460000Y-62230000D02*
X124460000Y-63500000D01*
X124460000Y-63500000D02*
X177800000Y-63500000D01*
X170180000Y-77470000D02*
X177800000Y-77470000D01*
X130810000Y-66675000D02*
X171450000Y-66675000D01*
X130810000Y-56515000D02*
X171450000Y-56515000D01*
X124460000Y-77470000D02*
X132080000Y-77470000D01*
X116205000Y-86360000D02*
X186055000Y-86360000D01*
X186055000Y-86360000D02*
X186055000Y-101600000D01*
X186055000Y-101600000D02*
X116205000Y-101600000D01*
X116205000Y-101600000D02*
X116205000Y-86360000D01*
X125730000Y-101600000D02*
X125730000Y-108585000D01*
X125730000Y-108585000D02*
X176530000Y-108585000D01*
X176530000Y-108585000D02*
X176530000Y-101600000D01*
X123825000Y-101600000D02*
X123825000Y-86360000D01*
X178435000Y-101600000D02*
X178435000Y-86360000D01*
X171370667Y-78192381D02*
X171370667Y-78906667D01*
X171323047Y-79049524D01*
X171227809Y-79144762D01*
X171084952Y-79192381D01*
X170989714Y-79192381D01*
X172370667Y-79192381D02*
X171799238Y-79192381D01*
X172084952Y-79192381D02*
X172084952Y-78192381D01*
X171989714Y-78335238D01*
X171894476Y-78430476D01*
X171799238Y-78478095D01*
X179244667Y-84796381D02*
X179244667Y-85510667D01*
X179197047Y-85653524D01*
X179101809Y-85748762D01*
X178958952Y-85796381D01*
X178863714Y-85796381D01*
X179673238Y-84891619D02*
X179720857Y-84844000D01*
X179816095Y-84796381D01*
X180054191Y-84796381D01*
X180149429Y-84844000D01*
X180197048Y-84891619D01*
X180244667Y-84986857D01*
X180244667Y-85082095D01*
X180197048Y-85224952D01*
X179625619Y-85796381D01*
X180244667Y-85796381D01*
M02*
