%FSLAX46Y46*%
G04 Gerber Fmt 4.6, Leading zero omitted, Abs format (unit mm)*
G04 Created by KiCad (PCBNEW (2014-08-05 BZR 5054)-product) date Thu 20 Aug 2015 06:52:16 PM PDT*
%MOMM*%
G01*
G04 APERTURE LIST*
%ADD10C,0.100000*%
%ADD11C,3.810000*%
%ADD12C,1.524000*%
%ADD13R,1.524000X1.524000*%
G04 APERTURE END LIST*
D10*
D11*
X174625000Y-73660000D03*
X127635000Y-73660000D03*
D12*
X134620000Y-76200000D03*
X137414000Y-76200000D03*
X140081000Y-76200000D03*
X142875000Y-76200000D03*
X145669000Y-76200000D03*
X148463000Y-76200000D03*
X151130000Y-76200000D03*
X153924000Y-76200000D03*
X156718000Y-76200000D03*
X159512000Y-76200000D03*
X162179000Y-76200000D03*
X164973000Y-76200000D03*
D13*
X167767000Y-76200000D03*
D12*
X136194800Y-73660000D03*
X138734800Y-73660000D03*
X141528800Y-73660000D03*
X144272000Y-73660000D03*
X147015200Y-73660000D03*
X149809200Y-73660000D03*
X152552400Y-73660000D03*
X155295600Y-73660000D03*
X158140400Y-73660000D03*
X160832800Y-73660000D03*
X163576000Y-73660000D03*
X166370000Y-73660000D03*
X176047400Y-88112600D03*
X173278800Y-88112600D03*
X170510200Y-88112600D03*
X167741600Y-88112600D03*
X164973000Y-88112600D03*
X162204400Y-88112600D03*
X159435800Y-88112600D03*
X156667200Y-88112600D03*
X153898600Y-88112600D03*
D11*
X182753000Y-89535000D03*
X119253000Y-89535000D03*
D12*
X151130000Y-88112600D03*
X148361400Y-88112600D03*
X145592800Y-88112600D03*
X142824200Y-88112600D03*
X140055600Y-88112600D03*
X137287000Y-88112600D03*
X134518400Y-88112600D03*
X131749800Y-88112600D03*
X128981200Y-88112600D03*
D13*
X126212600Y-88112600D03*
D12*
X174675800Y-90957400D03*
X171907200Y-90957400D03*
X169138600Y-90957400D03*
X166370000Y-90957400D03*
X163601400Y-90957400D03*
X160832800Y-90957400D03*
X158064200Y-90957400D03*
X155295600Y-90957400D03*
X152527000Y-90957400D03*
X149758400Y-90957400D03*
X146989800Y-90957400D03*
X144221200Y-90957400D03*
X141452600Y-90957400D03*
X138684000Y-90957400D03*
X135915400Y-90957400D03*
X133146800Y-90957400D03*
X130378200Y-90957400D03*
X127609600Y-90957400D03*
M02*
